<svg id="Group_43" data-name="Group 43" xmlns="http://www.w3.org/2000/svg" xmlns:xlink="http://www.w3.org/1999/xlink" width="60" height="50" viewBox="0 0 60 50">
  <defs>
    <clipPath id="clip-path">
      <rect id="Rectangle_67" data-name="Rectangle 67" width="60" height="50" fill="#858c80"/>
    </clipPath>
  </defs>
  <g id="Group_42" data-name="Group 42" clip-path="url(#clip-path)">
    <path id="Path_92" data-name="Path 92" d="M52.5,50H45a1.249,1.249,0,0,1-1.25-1.25V45H16.25v3.75A1.249,1.249,0,0,1,15,50H7.5a1.249,1.249,0,0,1-1.25-1.25V45h-5V43.75H0V1.25H1.25V0h57.5V1.25H60v42.5H58.75V45h-5v3.75A1.249,1.249,0,0,1,52.5,50m-6.25-2.5h5V45h-5Zm-37.5,0h5V45h-5Zm-6.25-5h55V15H2.5Zm0-30h55V2.5H2.5ZM52.5,40h-10a1.249,1.249,0,0,1-1.25-1.25v-20A1.249,1.249,0,0,1,42.5,17.5h10a1.249,1.249,0,0,1,1.25,1.25v20A1.249,1.249,0,0,1,52.5,40m-8.75-2.5h7.5V26.25h-7.5Zm0-13.75h7.5V20h-7.5ZM35,40H25a1.249,1.249,0,0,1-1.25-1.25v-20A1.249,1.249,0,0,1,25,17.5H35a1.249,1.249,0,0,1,1.25,1.25v20A1.249,1.249,0,0,1,35,40m-8.75-2.5h7.5V26.25h-7.5Zm0-13.75h7.5V20h-7.5ZM17.5,40H7.5a1.249,1.249,0,0,1-1.25-1.25v-20A1.249,1.249,0,0,1,7.5,17.5h10a1.249,1.249,0,0,1,1.25,1.25v20A1.249,1.249,0,0,1,17.5,40M8.75,37.5h7.5V26.25H8.75Zm0-13.75h7.5V20H8.75ZM35,8.75H25V6.25H35Z" fill="#858c80"/>
  </g>
</svg>
