<svg xmlns="http://www.w3.org/2000/svg" width="55.487" height="49.546" viewBox="0 0 55.487 49.546">
  <path id="Icon_awesome-hand-holding-heart" data-name="Icon awesome-hand-holding-heart" d="M25.562,23.26a1.618,1.618,0,0,0,2.368,0l10.112-10.6a7.7,7.7,0,0,0-.52-11.031,7.058,7.058,0,0,0-9.74.715l-1.04,1.086L25.711,2.35a7.05,7.05,0,0,0-9.74-.724,7.7,7.7,0,0,0-.52,11.031ZM52.49,30.466a3.074,3.074,0,0,0-3.956,0l-8.58,6.862a5.911,5.911,0,0,1-3.714,1.3H25.256a1.486,1.486,0,0,1,0-2.971h7.27a3.091,3.091,0,0,0,3.092-2.47,2.975,2.975,0,0,0-2.934-3.473H17.828a10.928,10.928,0,0,0-6.88,2.442l-4.318,3.5H1.486A1.49,1.49,0,0,0,0,37.142v8.914a1.49,1.49,0,0,0,1.486,1.486h33.13a5.95,5.95,0,0,0,3.714-1.3L52.369,35.006A2.97,2.97,0,0,0,52.49,30.466Z" transform="translate(1 1.005)" fill="none" stroke="#858c80" stroke-width="2"/>
</svg>
