<svg xmlns="http://www.w3.org/2000/svg" xmlns:xlink="http://www.w3.org/1999/xlink" width="70.962" height="69.99" viewBox="0 0 70.962 69.99">
  <defs>
    <clipPath id="clip-path">
      <rect id="Rectangle_165" data-name="Rectangle 165" width="70.962" height="69.989" fill="#353434"/>
    </clipPath>
  </defs>
  <g id="Group_147" data-name="Group 147" transform="translate(0 0)">
    <g id="Group_146" data-name="Group 146" transform="translate(0 0)" clip-path="url(#clip-path)">
      <path id="Path_120" data-name="Path 120" d="M70.181,22.569l-6.176-5.2c0-4.466.663-2.828-3.639-7.96.8-4.538,1.432-5.911-.135-6.783C57.671,1.2,56.272-.016,54.969,1.415c-6.71,7.37-4.929,4.633-8.275,13.19l-5.307-3.7c3.348-6.239,3.3-4.39.243-9.9A1.941,1.941,0,0,0,39.413.071C31.1,2.35,33.513.906,28.885,6.1l-1.774.325-4.866-2.49c-1.232-.633-1.7-.049-6.6,2.848a39.319,39.319,0,0,0-3.063,3.541C2.093,13.477,1.432,13.282,1.2,14.927-.094,24.158-.283,24.109.349,24.97L3.34,29.048l1.483,5.107-3.1,3.962a1.945,1.945,0,0,0,.065,2.475C6.9,46.472,5.095,45.718,11.219,45c1.047-.123,1.143-.524,4.081-4.3,6.343-.121,4.862.706,8.058-3.972L31.95,35.23c5.5,3.881,3.585,2.147,8.4,7.6,1.061,6.268-.256,4.84,7.229,7.373l3.685,4.631a1.944,1.944,0,0,0,2.458.493,63.56,63.56,0,0,1,8.475-4.266c1.01-.453.91-.764,3.142-7.028l5.2-6.477a1.946,1.946,0,0,0,.428-1.231c-.095-13.254.152-12.971-.78-13.758M59.847,47.851a46.64,46.64,0,0,0-6.562,3.28c-4.154-5.221-2.114-3.818-8.6-6.014-.536-3.161-.479-3.8-1.05-4.445-.248-.282-4.468-5.114-4.773-5.329-5.685-4.011-5.735-4.273-6.779-4.084l-10.2,1.771c-1.043.18-1.2.717-3.247,3.708-6.3.122-4.57-.794-8.678,4.49l-2.232.263L5.776,39.25c2.8-3.582,3.419-3.991,3.061-5.224-1.92-6.611-1.831-6.559-2.157-7L3.954,23.306l.927-6.6c11.92-3.58,9.083-1.928,13.039-6.742l3.507-2.072c4.831,2.472,4.876,2.64,5.737,2.485,2.725-.5,3.521-.443,4.182-1.184l3.385-3.8,4.236-1.162.808,1.456-2.635,4.908a1.944,1.944,0,0,0,.6,2.516c9.384,6.54,9.223,6.733,10.43,6.366s.986-.49,4.694-9.971l3.944-4.331.323.179c-1.095,6.215-1.708,4.211,2.984,9.81V18.27a1.948,1.948,0,0,0,.691,1.488l6.183,5.209.076,10.7c-6.536,8.145-4.577,4.771-7.219,12.188m1.817,8.788,2.661,2.839c-4.378,4.1-3.124,3.869-8.257,1.67L55.023,62.28l4.224,5.28-3.038,2.43L50.941,63.4a1.943,1.943,0,0,1,.089-2.533c2.972-3.219,3.685-4.537,5.307-3.839l3.37,1.443Z" transform="translate(0 0)" fill="#353434"/>
    </g>
  </g>
</svg>
