<svg xmlns="http://www.w3.org/2000/svg" xmlns:xlink="http://www.w3.org/1999/xlink" width="56.057" height="40.325" viewBox="0 0 56.057 40.325">
  <defs>
    <clipPath id="clip-path">
      <rect id="Rectangle_52" data-name="Rectangle 52" width="56.057" height="40.325" fill="#353434"/>
    </clipPath>
  </defs>
  <g id="Group_32" data-name="Group 32" transform="translate(0 0)">
    <g id="Group_28" data-name="Group 28" transform="translate(0 0)" clip-path="url(#clip-path)">
      <path id="Path_56" data-name="Path 56" d="M8.2,22.826a.92.92,0,0,1-.391-.084L.591,19.583a.981.981,0,0,1-.509-1.3L7.6,1.143a.983.983,0,0,1,1.3-.506L16.105,3.8a.981.981,0,0,1,.506,1.294L9.1,22.236a.987.987,0,0,1-.9.59m-5.915-4.65,5.411,2.37L14.413,5.2,9.007,2.835Z" transform="translate(-0.001 0.899)" fill="#353434"/>
      <path id="Path_57" data-name="Path 57" d="M23.5,22.271a.989.989,0,0,1-.9-.588L15.082,4.54a1,1,0,0,1-.016-.753.982.982,0,0,1,.522-.543L22.8.084A.984.984,0,0,1,24.1.59l7.513,17.143a.975.975,0,0,1-.506,1.294L23.893,22.19a1,1,0,0,1-.4.081M17.283,4.65l6.723,15.341,5.408-2.37L22.692,2.28Z" transform="translate(24.362 0)" fill="#353434"/>
      <path id="Path_58" data-name="Path 58" d="M7.087,16.571a2.886,2.886,0,0,1-1.989-.8l-.583-.556a3.476,3.476,0,0,1-.344-4.532L5.589,8.788A2.932,2.932,0,0,1,8.646,7.7a4.126,4.126,0,0,1,1.228.653l.643.609a3.429,3.429,0,0,1,1.013,2.22,3.368,3.368,0,0,1-.653,2.354L9.436,15.388a3.006,3.006,0,0,1-2.123,1.176c-.079.005-.152.008-.226.008m.848-7.012A1.084,1.084,0,0,0,7.142,10L5.733,11.879a1.493,1.493,0,0,0,.147,1.916l.572.546a.912.912,0,0,0,.706.26,1.025,1.025,0,0,0,.722-.415L9.32,12.325a1.4,1.4,0,0,0,.247-1l0-.034a1.437,1.437,0,0,0-.422-.926l-.559-.535a2.559,2.559,0,0,0-.522-.26.64.64,0,0,0-.126-.013" transform="translate(5.669 12.35)" fill="#353434"/>
      <path id="Path_59" data-name="Path 59" d="M26.764,36.285a3.611,3.611,0,0,1-2.414-.905l-2.283-2.047a.988.988,0,0,1-.118-1.344l.289-.367a1.267,1.267,0,0,0,.291-.887,1.484,1.484,0,0,0-.4-1.042l-.59-.541a.827.827,0,0,0-.863-.239.79.79,0,0,0-.485.268l-.042.055a.984.984,0,0,1-1.582-1.17c.037-.05.071-.1.11-.147l.438-.567a1.85,1.85,0,0,0-.189-2.2l-.3-.278a1.061,1.061,0,0,0-1.59.066l-.016.018a1.721,1.721,0,0,1-.163.186.984.984,0,0,1-1.375-1.409,1.74,1.74,0,0,0-.247-2.07l-.333-.307a1.055,1.055,0,0,0-1.543.039l-1.493,1.929a.981.981,0,0,1-1.349.213c-.234-.163-.467-.344-.685-.514a1.126,1.126,0,0,1-.291-1.47l.706-.916a1.407,1.407,0,0,0,.247-1,1.488,1.488,0,0,0-.425-.963L9.5,18.141a2.447,2.447,0,0,0-.522-.257.993.993,0,0,0-.918.425L7.044,19.684a.984.984,0,0,1-1.367.228,12.3,12.3,0,0,0-2.115-1.325.984.984,0,0,1-.546-1.336L9.605,3.058a.979.979,0,0,1,1.107-.546c.073.013,1.826.409,4.432,1.225a1,1,0,0,1,.588.5.979.979,0,0,1,.045.769,2.341,2.341,0,0,0-.15.8,2.06,2.06,0,0,0,2.057,2.06h8.137a1,1,0,0,1,.425.1,34.917,34.917,0,0,1,7.345,4.545c.192.155.383.333.569.506l6.823,6.067a3.677,3.677,0,0,1,.294,5.141l-.008.008a3.665,3.665,0,0,1-2.627,1.191c.005.045.008.089.011.134a3.61,3.61,0,0,1-3.535,3.829,1.026,1.026,0,0,1,.008.129,3.573,3.573,0,0,1-.913,2.619,3.74,3.74,0,0,1-3.726,1.079,4.827,4.827,0,0,1-.989,1.876,3.692,3.692,0,0,1-2.734,1.2m-2.716-3.818,1.614,1.446a1.787,1.787,0,0,0,2.37-.139,3.6,3.6,0,0,0,.716-2.068.984.984,0,0,1,1.64-.732,1.735,1.735,0,0,0,2.351-.15,1.657,1.657,0,0,0-.126-2.349.984.984,0,0,1,1.315-1.464,1.519,1.519,0,0,0,2.343-.139,1.671,1.671,0,0,0-.123-2.343l-.016-.013a.984.984,0,0,1,1.307-1.472l.013.013a1.539,1.539,0,0,0,2.356-.142,1.7,1.7,0,0,0-.136-2.364l-6.852-6.1c-.157-.147-.315-.294-.483-.433A32.73,32.73,0,0,0,25.6,9.833H17.685a4.03,4.03,0,0,1-4.025-4.028,3.805,3.805,0,0,1,.026-.457c-1.126-.336-2.042-.58-2.635-.732L5.194,17.231c.22.134.491.3.819.525l.5-.656a2.925,2.925,0,0,1,3.054-1.092,4.106,4.106,0,0,1,1.231.653l.643.609a3.44,3.44,0,0,1,1.016,2.238.741.741,0,0,0,.005.076,2.993,2.993,0,0,1,3.787.341l.323.3a3.567,3.567,0,0,1,1.092,2.38,2.911,2.911,0,0,1,2.312.84l.325.3a3.826,3.826,0,0,1,1.031,3.186,2.936,2.936,0,0,1,1.551.785l.588.538A3.457,3.457,0,0,1,24.5,30.735a3.283,3.283,0,0,1-.449,1.732m16.493-8.9h0Z" transform="translate(4.749 4.041)" fill="#353434"/>
      <path id="Path_60" data-name="Path 60" d="M32.168,19.883a.971.971,0,0,1-.69-.283l-.247-.244c-4.558-4.4-10.344-9.1-12.053-9.1H11.044A4.031,4.031,0,0,1,7.016,6.225a4.315,4.315,0,0,1,.265-1.456,4.093,4.093,0,0,1,3.763-2.545h7.647a3.71,3.71,0,0,1,1.286.228L24.49,4.115l5.385-1.567a.99.99,0,0,1,1.173.543l5.534,12.4a.985.985,0,0,1-.257,1.149l-3.516,3a.987.987,0,0,1-.64.236M11.044,4.191A2.1,2.1,0,0,0,9.115,5.485a2.232,2.232,0,0,0-.131.74,2.062,2.062,0,0,0,2.06,2.06h8.135c3.015,0,10.289,6.663,13.031,9.284l2.275-1.947L29.6,4.677l-4.87,1.417a.991.991,0,0,1-.617-.021L19.3,4.3a1.72,1.72,0,0,0-.606-.11Z" transform="translate(11.395 3.611)" fill="#353434"/>
      <path id="Path_61" data-name="Path 61" d="M18.77,14.155a.975.975,0,0,1-.632-.231l-3.766-3.173a.984.984,0,1,1,1.267-1.506L19.4,12.418a.983.983,0,0,1-.632,1.737" transform="translate(22.773 14.64)" fill="#353434"/>
      <path id="Path_62" data-name="Path 62" d="M17.335,15.639a.987.987,0,0,1-.635-.231l-3.763-3.173a.986.986,0,1,1,1.273-1.506L17.97,13.9a.984.984,0,0,1-.635,1.737" transform="translate(20.445 17.051)" fill="#353434"/>
      <path id="Path_63" data-name="Path 63" d="M16.123,17.123a.982.982,0,0,1-.635-.231l-3.763-3.175A.985.985,0,1,1,13,12.213l3.76,3.173a.984.984,0,0,1-.635,1.737" transform="translate(18.476 19.458)" fill="#353434"/>
      <path id="Path_64" data-name="Path 64" d="M11.689,20.766a2.88,2.88,0,0,1-2.021-.837l-.556-.5a3.52,3.52,0,0,1-.656-4.1l.593-.869a.851.851,0,0,1,.15-.171l1.031-1.359A2.6,2.6,0,0,1,11.8,11.91a2.745,2.745,0,0,1,2.721.7l.588.538a3.453,3.453,0,0,1,1.031,2.485,3.2,3.2,0,0,1-.724,2.12l-1.4,1.84a2.93,2.93,0,0,1-2.1,1.168,2.25,2.25,0,0,1-.228.01M10.55,15.743l-.4.588a1.514,1.514,0,0,0,.312,1.661l.556.5a.94.94,0,0,0,.748.3.973.973,0,0,0,.69-.4l1.43-1.882a1.275,1.275,0,0,0,.289-.887,1.489,1.489,0,0,0-.4-1.042l-.593-.541a.822.822,0,0,0-.863-.239.778.778,0,0,0-.506.291l-1.141,1.514a1.135,1.135,0,0,1-.118.131" transform="translate(13.106 19.147)" fill="#353434"/>
      <path id="Path_65" data-name="Path 65" d="M9.672,21.666a2.973,2.973,0,0,1-2.1-.882l-.312-.265a3.705,3.705,0,0,1-.373-4.834l3.243-4.272c.031-.039.223-.26.26-.294a3.006,3.006,0,0,1,4.335-.108l.325.3a3.788,3.788,0,0,1,.611,4.432h0c-.037.066-.1.168-.115.2l-1.763,2.349a1.441,1.441,0,0,1-.118.131l-1.527,2a3.12,3.12,0,0,1-2.257,1.241c-.066.005-.134.008-.2.008m2.947-9.552a1.181,1.181,0,0,0-.84.394l-.178.2L8.441,16.885a1.733,1.733,0,0,0,.139,2.183l.323.276a1.083,1.083,0,0,0,.834.352,1.15,1.15,0,0,0,.837-.485l1.582-2.076a.93.93,0,0,1,.15-.171l1.556-2.042c.008-.016.068-.126.076-.144a1.784,1.784,0,0,0-.265-2.057l-.3-.278a1.07,1.07,0,0,0-.75-.328m.367,5.587h0Z" transform="translate(9.999 16.471)" fill="#353434"/>
      <path id="Path_66" data-name="Path 66" d="M8.256,20.3a3.08,3.08,0,0,1-2.091-.829l-.344-.32a3.744,3.744,0,0,1-.38-4.8l3.251-4.283a3.194,3.194,0,0,1,.336-.344,2.993,2.993,0,0,1,4.259-.058l.323.3a3.662,3.662,0,0,1,.609,4.448,1.515,1.515,0,0,1-.328.47l-3.159,4.175a3.114,3.114,0,0,1-2.21,1.233c-.089.008-.176.01-.265.01m2.934-9.52a1.117,1.117,0,0,0-.8.357l-3.385,4.4a1.763,1.763,0,0,0,.168,2.189l.323.3a1.077,1.077,0,0,0,.855.307,1.169,1.169,0,0,0,.819-.472l3.246-4.272a.522.522,0,0,1,.081-.131,1.688,1.688,0,0,0-.231-2.049l-.333-.307a1.07,1.07,0,0,0-.745-.318" transform="translate(7.706 14.301)" fill="#353434"/>
    </g>
  </g>
</svg>
