<svg id="Group_178" data-name="Group 178" xmlns="http://www.w3.org/2000/svg" xmlns:xlink="http://www.w3.org/1999/xlink" width="46.909" height="46.909" viewBox="0 0 46.909 46.909">
  <defs>
    <clipPath id="clip-path">
      <rect id="Rectangle_181" data-name="Rectangle 181" width="46.909" height="46.909" transform="translate(0 0)" fill="none" stroke="#858c80" stroke-width="2"/>
    </clipPath>
  </defs>
  <g id="Group_177" data-name="Group 177" clip-path="url(#clip-path)">
    <path id="Path_175" data-name="Path 175" d="M34.2,34.205a34.767,34.767,0,0,1-.2,3.7,7.738,7.738,0,0,1-6.848,6.848,33.8,33.8,0,0,1-7.4,0A7.738,7.738,0,0,1,12.907,37.9a33.8,33.8,0,0,1,0-7.4,7.738,7.738,0,0,1,6.848-6.848,33.8,33.8,0,0,1,7.4,0A7.738,7.738,0,0,1,34,30.506,34.767,34.767,0,0,1,34.2,34.205Z" fill="none" stroke="#858c80" stroke-linecap="round" stroke-linejoin="round" stroke-width="2"/>
    <path id="Path_176" data-name="Path 176" d="M23.455,30.817l1.1,2.231,2.461.357-1.781,1.737.421,2.451-2.2-1.157-2.2,1.157.421-2.451L19.892,33.4l2.461-.357Z" fill="none" stroke="#858c80" stroke-linecap="round" stroke-linejoin="round" stroke-width="2"/>
    <path id="Path_177" data-name="Path 177" d="M12.7,30.3c-7.505-5.082-10.75-9.773-10.75-12.7,0-5.58,5.864-12.7,7.632-14.014,3.273-1.094,7.788-1.622,13.868-1.622" fill="none" stroke="#858c80" stroke-linecap="round" stroke-linejoin="round" stroke-width="2"/>
    <path id="Path_178" data-name="Path 178" d="M10.31,13.125c3.2-.948,7.505-1.4,13.144-1.4" fill="none" stroke="#858c80" stroke-linecap="round" stroke-linejoin="round" stroke-width="2"/>
    <path id="Path_179" data-name="Path 179" d="M9.587,3.577A13.106,13.106,0,0,0,8.8,8.512c0,4.261,4.975,10.242,12.7,14.943" fill="none" stroke="#858c80" stroke-linecap="round" stroke-linejoin="round" stroke-width="2"/>
    <path id="Path_180" data-name="Path 180" d="M23.455,1.955c6.078,0,10.594.528,13.867,1.622,1.768,1.31,7.632,8.434,7.632,14.014,0,2.932-3.245,7.623-10.75,12.7" fill="none" stroke="#858c80" stroke-linecap="round" stroke-linejoin="round" stroke-width="2"/>
    <path id="Path_181" data-name="Path 181" d="M23.455,11.727c5.639,0,9.938.45,13.143,1.4" fill="none" stroke="#858c80" stroke-linecap="round" stroke-linejoin="round" stroke-width="2"/>
    <path id="Path_182" data-name="Path 182" d="M25.409,23.455c7.73-4.7,12.7-10.682,12.7-14.943a13.106,13.106,0,0,0-.792-4.935" fill="none" stroke="#858c80" stroke-linecap="round" stroke-linejoin="round" stroke-width="2"/>
  </g>
</svg>
