<svg xmlns="http://www.w3.org/2000/svg" xmlns:xlink="http://www.w3.org/1999/xlink" width="63.198" height="63.198" viewBox="0 0 63.198 63.198">
  <defs>
    <clipPath id="clip-path">
      <rect id="Rectangle_70" data-name="Rectangle 70" width="51.094" height="51.094" fill="#353434"/>
    </clipPath>
  </defs>
  <g id="Group_49" data-name="Group 49" transform="translate(14.083 0) rotate(16)">
    <g id="Group_48" data-name="Group 48" transform="translate(0 0)" clip-path="url(#clip-path)">
      <path id="Path_100" data-name="Path 100" d="M50.853,8.1,42.8.228a.8.8,0,0,0-1.116,0L15.409,25.9a.8.8,0,1,0,1.116,1.142L42.238,1.915l5.853,5.72-1.035-.11a.788.788,0,0,0-.7.284.8.8,0,0,0-.151.738l.479,1.6-1.721-.186a.8.8,0,0,0-.85,1.023l.479,1.6L42.872,12.4a.811.811,0,0,0-.7.283.8.8,0,0,0-.151.74l.479,1.6-1.721-.187a.8.8,0,0,0-.851,1.023l.479,1.6-1.721-.185a.8.8,0,0,0-.85,1.022l.479,1.6-1.721-.186a.8.8,0,0,0-.851,1.023l.48,1.6L34.5,22.149a.8.8,0,0,0-.85,1.023l.479,1.6-1.721-.185a.805.805,0,0,0-.7.283.8.8,0,0,0-.151.738l.48,1.6-1.721-.186a.8.8,0,0,0-.851,1.023l.479,1.6-1.721-.185a.8.8,0,0,0-.85,1.022l.479,1.6L26.13,31.9a.8.8,0,0,0-.85,1.023l.48,1.6-1.722-.186a.808.808,0,0,0-.7.284.8.8,0,0,0-.151.738l.7,2.335-2.354,2.741-1.574-1.25V35.127a.8.8,0,0,0-.234-.564l-7.185-7.185a.8.8,0,0,0-1.129,0L.234,38.554A.8.8,0,0,0,.8,39.917H3.661l6.717,6.717V50.3a.8.8,0,0,0,1.389.537l7.983-8.782a.8.8,0,0,0,.208-.537v-.29l1.182.94a.8.8,0,0,0,1.1-.105L25.382,38.4a.8.8,0,0,0,.159-.749l-.479-1.6,1.721.186a.79.79,0,0,0,.7-.283.8.8,0,0,0,.151-.739l-.48-1.6,1.721.185a.789.789,0,0,0,.7-.283.8.8,0,0,0,.151-.739l-.479-1.6,1.721.186a.783.783,0,0,0,.7-.283.8.8,0,0,0,.151-.739l-.479-1.6,1.722.186a.8.8,0,0,0,.85-1.023l-.48-1.6,1.722.186a.788.788,0,0,0,.7-.283A.8.8,0,0,0,36,25.468l-.479-1.6,1.721.185a.788.788,0,0,0,.7-.283.8.8,0,0,0,.151-.739l-.479-1.6,1.721.187a.787.787,0,0,0,.7-.283.8.8,0,0,0,.151-.74l-.479-1.6,1.721.186a.8.8,0,0,0,.85-1.022l-.479-1.6,1.722.185a.788.788,0,0,0,.7-.283.8.8,0,0,0,.151-.738l-.479-1.6,1.721.186a.789.789,0,0,0,.7-.283.8.8,0,0,0,.151-.739l-.48-1.6,1.721.186a.787.787,0,0,0,.7-.283.8.8,0,0,0,.151-.74l-.48-1.6,2.129.228A.8.8,0,0,0,50.853,8.1M18.362,41.2,11.975,48.23V46.3a.8.8,0,0,0-.234-.564L4.556,38.554a.8.8,0,0,0-.564-.234H2.725l9.25-9.25,6.387,6.387Z" transform="translate(0 0)" fill="#353434"/>
      <path id="Path_101" data-name="Path 101" d="M51.573,10.392A2.438,2.438,0,0,0,53.282,9.7l.576-.563a2.363,2.363,0,0,0,0-3.391,2.458,2.458,0,0,0-3.417,0l-.576.562a2.363,2.363,0,0,0,0,3.392,2.436,2.436,0,0,0,1.708.691M50.98,7.451l.576-.563a.854.854,0,0,1,1.186,0,.768.768,0,0,1,0,1.108h0l-.576.562a.854.854,0,0,1-1.186,0,.768.768,0,0,1,0-1.108" transform="translate(-9.911 -1.02)" fill="#353434"/>
      <path id="Path_102" data-name="Path 102" d="M9.629,43.234l-2.4,2.4a.8.8,0,0,0,0,1.129l6.387,6.387a.8.8,0,0,0,1.129,0l2.4-2.4a.8.8,0,0,0,0-1.129l-6.387-6.387a.8.8,0,0,0-1.129,0m4.556,8.217L8.927,46.193l1.266-1.266,5.258,5.258Z" transform="translate(-1.412 -8.672)" fill="#353434"/>
    </g>
  </g>
</svg>
