<svg id="Group_171" data-name="Group 171" xmlns="http://www.w3.org/2000/svg" xmlns:xlink="http://www.w3.org/1999/xlink" width="62.053" height="44.032" viewBox="0 0 62.053 44.032">
  <defs>
    <clipPath id="clip-path">
      <rect id="Rectangle_178" data-name="Rectangle 178" width="62.053" height="44.032" fill="none" stroke="#858c80" stroke-width="3"/>
    </clipPath>
  </defs>
  <g id="Group_170" data-name="Group 170" transform="translate(0 0)" clip-path="url(#clip-path)">
    <path id="Path_161" data-name="Path 161" d="M20.942,37.809H57.751V19.4A18.4,18.4,0,0,0,39.347,1h0a18.4,18.4,0,0,0-18.4,18.4Z" transform="translate(3.151 0.151)" fill="none" stroke="#858c80" stroke-linecap="round" stroke-linejoin="round" stroke-width="3"/>
    <path id="Path_162" data-name="Path 162" d="M23.943,33H1v4.922" transform="translate(0.151 4.965)" fill="none" stroke="#858c80" stroke-linecap="round" stroke-linejoin="round" stroke-width="3"/>
    <path id="Path_163" data-name="Path 163" d="M21.585,14h-.2c-2.965.014-5.186,2.235-4.629,4.627l.072.311a8.7,8.7,0,0,1-.012,4.007l-.024.1c-.574,2.407,1.669,4.644,4.655,4.644h.142" transform="translate(2.508 2.106)" fill="none" stroke="#858c80" stroke-linecap="round" stroke-linejoin="round" stroke-width="3"/>
    <path id="Path_164" data-name="Path 164" d="M47.527,10.885H28.8v9.363a9.363,9.363,0,0,0,18.725,0Z" transform="translate(4.334 1.638)" fill="none" stroke="#858c80" stroke-linecap="round" stroke-linejoin="round" stroke-width="3"/>
  </g>
</svg>
