<svg xmlns="http://www.w3.org/2000/svg" xmlns:xlink="http://www.w3.org/1999/xlink" width="43.437" height="50.084" viewBox="0 0 43.437 50.084">
  <defs>
    <clipPath id="clip-path">
      <rect id="Rectangle_68" data-name="Rectangle 68" width="43.437" height="50.084" fill="#858c80"/>
    </clipPath>
  </defs>
  <g id="Group_45" data-name="Group 45" transform="translate(0 0)">
    <g id="Group_44" data-name="Group 44" transform="translate(0 0)" clip-path="url(#clip-path)">
      <path id="Path_93" data-name="Path 93" d="M21.719,50.084a4.786,4.786,0,0,1-2.461-.68L10.966,44.44C4.1,40.331,0,33.5,0,26.153V9.761a4.818,4.818,0,0,1,3.45-4.6L20.366.194a4.8,4.8,0,0,1,2.707,0L39.987,5.161a4.813,4.813,0,0,1,3.45,4.6V26.153c0,7.343-4.1,14.179-10.966,18.287L24.183,49.4a4.779,4.779,0,0,1-2.464.683m0-48.038a2.771,2.771,0,0,0-.773.112L4.024,7.122A2.764,2.764,0,0,0,2.049,9.761V26.153c0,6.614,3.726,12.793,9.969,16.531l8.289,4.961a2.732,2.732,0,0,0,2.825,0l8.289-4.958v0c6.242-3.735,9.969-9.914,9.969-16.528V9.761a2.761,2.761,0,0,0-1.975-2.636L22.494,2.159a2.8,2.8,0,0,0-.776-.112" transform="translate(0 -0.002)" fill="#858c80"/>
      <path id="Path_94" data-name="Path 94" d="M11.7,23.221H11.69a1.029,1.029,0,0,1-.735-.32L3.863,15.432a1.023,1.023,0,0,1,1.486-1.407l6.36,6.7L25.693,6.428a1.024,1.024,0,1,1,1.462,1.434L12.43,22.915a1.036,1.036,0,0,1-.732.306" transform="translate(6.204 10.601)" fill="#858c80"/>
    </g>
  </g>
</svg>
