<svg xmlns="http://www.w3.org/2000/svg" xmlns:xlink="http://www.w3.org/1999/xlink" width="88" height="52" viewBox="0 0 88 52">
  <defs>
    <clipPath id="clip-path">
      <rect id="Rectangle_64" data-name="Rectangle 64" width="88" height="52" transform="translate(0 0.191)" fill="#858c80"/>
    </clipPath>
  </defs>
  <g id="Group_37" data-name="Group 37" transform="translate(-0.374 -0.35)">
    <g id="Group_36" data-name="Group 36" transform="translate(0.374 0.159)" clip-path="url(#clip-path)">
      <path id="Path_75" data-name="Path 75" d="M28.2,8.558a1.387,1.387,0,0,0-.019,1.962,12.446,12.446,0,1,1-3.923-2.706A1.387,1.387,0,0,0,25.364,5.27a15.282,15.282,0,1,0,4.793,3.309A1.387,1.387,0,0,0,28.2,8.558" transform="translate(1.158 1.382)" fill="#858c80"/>
      <path id="Path_76" data-name="Path 76" d="M84.622,30.52h-43V20.81a20.771,20.771,0,0,0-.411-4.03l1.208-.323a4.143,4.143,0,0,0,2.639-2.16,4.241,4.241,0,0,0,.122-3.485A26.231,26.231,0,0,0,41.667,4.7,4.222,4.222,0,0,0,38.6,3.057a4.166,4.166,0,0,0-3.2,1.207l-.891.891A20.644,20.644,0,0,0,18.435.133,20.963,20.963,0,0,0,.234,17.658,20.691,20.691,0,0,0,6.907,36.276,5.536,5.536,0,0,0,8.325,47.167h.14a6.949,6.949,0,0,0,6.8,5.549h24.97a4.162,4.162,0,0,0,0-8.323H8.325a2.774,2.774,0,1,1,0-5.549,1.3,1.3,0,0,0,.128-.026,3.714,3.714,0,0,0,3.59,2.8H37.456a4.156,4.156,0,0,0,3.906-2.774H56.877a1.387,1.387,0,1,0,0-2.774H41.618V33.295H80.46v2.774H62.426a1.387,1.387,0,0,0,0,2.774H80.46v1.387a4.162,4.162,0,0,0,8.323,0V34.682a4.167,4.167,0,0,0-4.162-4.162M40.231,47.167a1.387,1.387,0,0,1,0,2.774H15.261a4.17,4.17,0,0,1-3.924-2.774ZM38.415,5.826a1.451,1.451,0,0,1,1.054.566,23.586,23.586,0,0,1,3.139,5.467,1.474,1.474,0,0,1-.039,1.2,1.352,1.352,0,0,1-.871.713l-1.207.323A20.852,20.852,0,0,0,36.46,7.121l.895-.895a1.362,1.362,0,0,1,1.06-.4m-.959,33.017H12.042A.944.944,0,0,1,11.1,37.9a3.76,3.76,0,0,0-1.464-2.951A17.956,17.956,0,0,1,2.978,18.063,18.154,18.154,0,0,1,18.741,2.891a18.038,18.038,0,0,1,20.1,17.919V37.456a1.389,1.389,0,0,1-1.387,1.387m48.553,1.387a1.387,1.387,0,1,1-2.774,0V33.295h1.387a1.389,1.389,0,0,1,1.387,1.387Z" transform="translate(-0.391 -0.167)" fill="#858c80"/>
      <path id="Path_77" data-name="Path 77" d="M9,12.388v8.323a1.387,1.387,0,1,0,2.774,0V12.388a1.387,1.387,0,1,0-2.774,0" transform="translate(3.094 4.093)" fill="#858c80"/>
      <path id="Path_78" data-name="Path 78" d="M15.469,13.775H17.55a1.387,1.387,0,1,0,0-2.774H15.469A3.472,3.472,0,0,0,12,14.469v4.162A3.472,3.472,0,0,0,15.469,22.1h1.387a3.468,3.468,0,1,0,0-6.936H14.775v-.694a.7.7,0,0,1,.694-.694m1.387,4.162a.694.694,0,0,1,0,1.387H15.469a.7.7,0,0,1-.694-.694v-.694Z" transform="translate(4.256 4.093)" fill="#858c80"/>
      <path id="Path_79" data-name="Path 79" d="M19.795,11.408l-1.387,1.387a1.387,1.387,0,1,0,1.962,1.962l1.387-1.387a1.387,1.387,0,0,0-1.962-1.962" transform="translate(6.579 4.093)" fill="#858c80"/>
    </g>
  </g>
</svg>
