<svg id="Group_71" data-name="Group 71" xmlns="http://www.w3.org/2000/svg" xmlns:xlink="http://www.w3.org/1999/xlink" width="50" height="41.128" viewBox="0 0 50 41.128">
  <defs>
    <clipPath id="clip-path">
      <rect id="Rectangle_69" data-name="Rectangle 69" width="50" height="41.128" fill="#353434"/>
    </clipPath>
  </defs>
  <g id="Group_46" data-name="Group 46" transform="translate(0 0)" clip-path="url(#clip-path)">
    <path id="Path_95" data-name="Path 95" d="M25,35.258a3.07,3.07,0,0,1-2.445-1.2L.207,5.133A1,1,0,0,1,1,3.522H49a1,1,0,0,1,.792,1.611L27.445,34.058A3.068,3.068,0,0,1,25,35.258M3.037,5.522l21.1,27.312a1.125,1.125,0,0,0,1.725,0l21.1-27.312Z" transform="translate(0.001 5.87)" fill="#353434"/>
    <path id="Path_96" data-name="Path 96" d="M48.985,11.392H1.009a1,1,0,0,1-.8-1.605L6.705,1.224A3.1,3.1,0,0,1,9.166,0H40.828a3.107,3.107,0,0,1,2.464,1.224l6.491,8.563a1,1,0,0,1-.8,1.605m-45.963-2H46.972L41.7,2.432A1.1,1.1,0,0,0,40.828,2H9.166a1.093,1.093,0,0,0-.867.432Z" transform="translate(0.015 0)" fill="#353434"/>
    <path id="Path_97" data-name="Path 97" d="M19.722,40.572a1,1,0,0,1-.952-.693L9.264,10.345,3.093,1.895A1,1,0,1,1,4.709.716l6.264,8.579a.944.944,0,0,1,.144.283l9.557,29.688a1,1,0,0,1-.645,1.259,1.022,1.022,0,0,1-.307.048" transform="translate(4.835 0.508)" fill="#353434"/>
    <path id="Path_98" data-name="Path 98" d="M10.164,40.571a1,1,0,0,1-.952-1.3L18.654,9.579a.954.954,0,0,1,.149-.293L25.2.707A1,1,0,0,1,26.8,1.9l-6.3,8.445L11.116,39.875a1,1,0,0,1-.952.7" transform="translate(15.274 0.509)" fill="#353434"/>
    <path id="Path_99" data-name="Path 99" d="M6.25,11.392a1,1,0,0,1-.685-1.728l10-9.392a1,1,0,0,1,1.373,0l9.88,9.392a1,1,0,0,1-1.376,1.451L16.247,2.376,6.935,11.12a1,1,0,0,1-.685.272" transform="translate(8.75 0)" fill="#353434"/>
  </g>
</svg>
