<svg xmlns="http://www.w3.org/2000/svg" xmlns:xlink="http://www.w3.org/1999/xlink" width="68" height="52" viewBox="0 0 68 52">
  <defs>
    <clipPath id="clip-path">
      <rect id="Rectangle_66" data-name="Rectangle 66" width="68" height="52" transform="translate(0.411 0.382)" fill="#858c80"/>
    </clipPath>
  </defs>
  <g id="Group_41" data-name="Group 41" transform="translate(-0.537 0.069)">
    <g id="Group_40" data-name="Group 40" transform="translate(0.126 -0.451)" clip-path="url(#clip-path)">
      <path id="Path_87" data-name="Path 87" d="M63.742,0H55.1a1.08,1.08,0,1,0,0,2.161h8.643A3.244,3.244,0,0,1,66.984,5.4v8.643a3.236,3.236,0,0,1-1.866,2.924A1.048,1.048,0,0,0,65,16.684l-.8-1.193a3.218,3.218,0,0,0-2.694-1.447H57.26a3.245,3.245,0,0,0-3.241,3.241V29.17a1.081,1.081,0,0,1-1.08,1.08H50.783l-.125-1.374a3.226,3.226,0,0,0-3.228-2.947H45.376v-5.4a3.244,3.244,0,0,0-3.241-3.241h-5.4V2.161H50.778a1.08,1.08,0,1,0,0-2.161H35.653c-.01,0-.018.005-.028.005a1.072,1.072,0,0,0-.313.05L29,2.161H22.688a1.081,1.081,0,0,0-.341.055L15.864,4.377A1.081,1.081,0,0,0,15.125,5.4v1.08a3.234,3.234,0,0,0-3.041,2.161H9.851L9.61,8.16a1.073,1.073,0,0,0-2.037.483H6.61L6.369,8.16a1.073,1.073,0,0,0-2.037.483H3.369L3.128,8.16a1.073,1.073,0,0,0-2.037.483H1.08a1.08,1.08,0,1,0,0,2.161h.953l.242.483A1.073,1.073,0,0,0,4.311,10.8h.964l.242.483A1.073,1.073,0,0,0,7.552,10.8h.964l.242.483a1.073,1.073,0,0,0,2.035-.483h1.291a3.235,3.235,0,0,0,3.041,2.161v1.08a1.082,1.082,0,0,0,.739,1.025l6.482,2.161a1.081,1.081,0,0,0,.341.055H29l6.316,2.106a1.091,1.091,0,0,0,.341.055h3.241v3.241a3.245,3.245,0,0,0,3.241,3.241h1.08v1.08a1.08,1.08,0,0,0,1.08,1.08H47.43a1.075,1.075,0,0,1,1.076.983l.64,7.039a1.078,1.078,0,0,1-.79,1.139l-.834.23a2.92,2.92,0,0,0,.774,5.735h3.563V44.3a3.238,3.238,0,0,0,2.161,3.042v3.44a1.08,1.08,0,1,0,2.161,0v-3.44A3.236,3.236,0,0,0,58.34,44.3v-1.08h3.036A3.241,3.241,0,0,0,64.6,39.68l-1.75-19.26a.891.891,0,0,1,.888-.973,5.408,5.408,0,0,0,5.4-5.4V5.4a5.408,5.408,0,0,0-5.4-5.4M34.572,8.643H30.251V7.4l4.322-.721ZM30.251,10.8h4.322v1.965l-4.322-.72Zm4.322-6.317-4.322.72V4.02l4.322-1.441ZM14.045,9.723a1.082,1.082,0,0,1,1.08-1.08V10.8a1.082,1.082,0,0,1-1.08-1.08m3.241-3.543L21.608,4.74v9.966l-4.322-1.44Zm6.482-1.859H28.09v10.8H23.768Zm6.482,9.918,4.322.721v1.908l-4.322-1.441Zm11.884,9.529a1.082,1.082,0,0,1-1.08-1.08V19.447h1.08a1.081,1.081,0,0,1,1.08,1.08v3.241ZM56.18,44.3a1.08,1.08,0,1,1-2.161,0v-1.08H56.18Zm6.273-4.419a1.08,1.08,0,0,1-1.076,1.178H48.3a.759.759,0,0,1-.2-1.491l.834-.23A3.238,3.238,0,0,0,51.3,35.915l-.319-3.5h1.96A3.244,3.244,0,0,0,56.18,29.17V17.286a1.082,1.082,0,0,1,1.08-1.08h4.247a1.069,1.069,0,0,1,.9.483l.492.734A3.013,3.013,0,0,0,60.7,20.616Z" transform="translate(-0.161 0.453)" fill="#858c80"/>
      <path id="Path_88" data-name="Path 88" d="M55.08,6.161H59.4A1.08,1.08,0,1,0,59.4,4H55.08a1.08,1.08,0,0,0,0,2.161" transform="translate(4.179 0.774)" fill="#858c80"/>
      <path id="Path_89" data-name="Path 89" d="M55.08,9.161H59.4A1.08,1.08,0,1,0,59.4,7H55.08a1.08,1.08,0,0,0,0,2.161" transform="translate(4.179 1.015)" fill="#858c80"/>
      <path id="Path_90" data-name="Path 90" d="M55.08,12.161H59.4A1.08,1.08,0,1,0,59.4,10H55.08a1.08,1.08,0,0,0,0,2.161" transform="translate(4.179 1.256)" fill="#858c80"/>
      <path id="Path_91" data-name="Path 91" d="M43,19.241A3.241,3.241,0,1,0,46.241,16,3.245,3.245,0,0,0,43,19.241m4.322,0a1.08,1.08,0,1,1-1.08-1.08,1.082,1.082,0,0,1,1.08,1.08" transform="translate(3.295 1.739)" fill="#858c80"/>
    </g>
  </g>
</svg>
