<svg xmlns="http://www.w3.org/2000/svg" xmlns:xlink="http://www.w3.org/1999/xlink" width="51.286" height="56.11" viewBox="0 0 51.286 56.11">
  <defs>
    <clipPath id="clip-path">
      <rect id="Rectangle_172" data-name="Rectangle 172" width="51.286" height="56.11" fill="#858c80"/>
    </clipPath>
  </defs>
  <g id="Group_163" data-name="Group 163" transform="translate(0 0)">
    <g id="Group_162" data-name="Group 162" transform="translate(0 0)" clip-path="url(#clip-path)">
      <path id="Path_146" data-name="Path 146" d="M7.283,7.221a11.044,11.044,0,1,0,15.619,0,11.058,11.058,0,0,0-15.619,0M20.937,20.875a8.261,8.261,0,1,1,0-11.69,8.275,8.275,0,0,1,0,11.69" transform="translate(1.578 1.553)" fill="#858c80"/>
      <path id="Path_147" data-name="Path 147" d="M50.066,44.087,31.022,25.043A16.716,16.716,0,0,0,27.8,4.176a16.913,16.913,0,0,0-22.748.447A16.666,16.666,0,0,0,25.129,30.937l8.239,8.238L31.4,41.139a4.167,4.167,0,0,0,0,5.894,4.267,4.267,0,0,0,5.893,0l1.966-1.964,1.964,1.964L39.262,49a4.167,4.167,0,0,0,5.893,5.894l4.911-4.912a4.17,4.17,0,0,0,0-5.893M48.1,48.016l-4.911,4.911a1.389,1.389,0,1,1-1.964-1.964l2.946-2.946a1.388,1.388,0,0,0,0-1.964l-3.929-3.929a1.388,1.388,0,0,0-1.964,0l-2.949,2.946a1.417,1.417,0,0,1-1.963,0,1.388,1.388,0,0,1,0-1.964l2.946-2.948a1.39,1.39,0,0,0,0-1.964L26.306,28.184a1.387,1.387,0,0,0-1.77-.161A13.887,13.887,0,0,1,6.995,6.615a14.1,14.1,0,0,1,18.95-.375A13.928,13.928,0,0,1,28.109,24.45a1.386,1.386,0,0,0,.161,1.77L48.1,46.051a1.39,1.39,0,0,1,0,1.964" transform="translate(0 -0.001)" fill="#858c80"/>
    </g>
  </g>
</svg>
