<svg id="Group_173" data-name="Group 173" xmlns="http://www.w3.org/2000/svg" xmlns:xlink="http://www.w3.org/1999/xlink" width="53.554" height="53.554" viewBox="0 0 53.554 53.554">
  <defs>
    <clipPath id="clip-path">
      <rect id="Rectangle_179" data-name="Rectangle 179" width="53.554" height="53.554" fill="none" stroke="#858c80" stroke-width="3"/>
    </clipPath>
  </defs>
  <g id="Group_172" data-name="Group 172" transform="translate(0 0)" clip-path="url(#clip-path)">
    <path id="Path_165" data-name="Path 165" d="M38.5,15.343c0,.932-.033,1.838-.089,2.707A11.345,11.345,0,0,1,27.823,28.642c-.87.056-1.775.089-2.707.089s-1.838-.033-2.707-.089A11.345,11.345,0,0,1,11.817,18.05c-.057-.869-.09-1.775-.09-2.707s.033-1.838.09-2.707A11.345,11.345,0,0,1,22.409,2.044c.869-.056,1.775-.089,2.707-.089s1.837.033,2.707.089A11.345,11.345,0,0,1,38.415,12.636C38.471,13.505,38.5,14.412,38.5,15.343Z" transform="translate(1.661 0.277)" fill="none" stroke="#858c80" stroke-linecap="round" stroke-linejoin="round" stroke-width="3"/>
    <path id="Path_166" data-name="Path 166" d="M15.333,4.339a10.009,10.009,0,0,0,9.271,6.2H37.647" transform="translate(2.172 0.615)" fill="none" stroke="#858c80" stroke-linecap="round" stroke-linejoin="round" stroke-width="3"/>
    <path id="Path_167" data-name="Path 167" d="M28.1,30.4c2.588.122,4.987.323,7.107.547A13.414,13.414,0,0,1,47.086,42.743a37.214,37.214,0,0,1,.257,4.273" transform="translate(3.98 4.306)" fill="none" stroke="#858c80" stroke-linecap="round" stroke-linejoin="round" stroke-width="3"/>
    <path id="Path_168" data-name="Path 168" d="M1.954,47.016a37.23,37.23,0,0,1,.257-4.273A13.416,13.416,0,0,1,14.093,30.95c2.12-.223,4.519-.424,7.107-.547" transform="translate(0.277 4.306)" fill="none" stroke="#858c80" stroke-linecap="round" stroke-linejoin="round" stroke-width="3"/>
    <path id="Path_169" data-name="Path 169" d="M18.813,30.4l5.3,5.456,5.3-5.456" transform="translate(2.665 4.306)" fill="none" stroke="#858c80" stroke-linecap="round" stroke-linejoin="round" stroke-width="3"/>
    <line id="Line_63" data-name="Line 63" y1="11.157" transform="translate(26.777 40.165)" fill="none" stroke="#858c80" stroke-linecap="round" stroke-linejoin="round" stroke-width="3"/>
    <line id="Line_64" data-name="Line 64" x2="6.695" transform="translate(35.702 46.86)" fill="none" stroke="#858c80" stroke-linecap="round" stroke-linejoin="round" stroke-width="3"/>
  </g>
</svg>
