<svg xmlns="http://www.w3.org/2000/svg" xmlns:xlink="http://www.w3.org/1999/xlink" width="60" height="54" viewBox="0 0 60 54">
  <defs>
    <clipPath id="clip-path">
      <rect id="Rectangle_174" data-name="Rectangle 174" width="60" height="54" transform="translate(-0.419 0)" fill="#858c80"/>
    </clipPath>
  </defs>
  <g id="Group_167" data-name="Group 167" transform="translate(0.419)">
    <g id="Group_166" data-name="Group 166" transform="translate(0 0)" clip-path="url(#clip-path)">
      <path id="Path_151" data-name="Path 151" d="M1.49,11.916a1.488,1.488,0,0,0,1.49-1.49V2.979h7.448a1.49,1.49,0,0,0,0-2.979H1.49A1.488,1.488,0,0,0,0,1.49v8.937a1.488,1.488,0,0,0,1.49,1.49" transform="translate(0 0)" fill="#858c80"/>
      <path id="Path_152" data-name="Path 152" d="M10.427,36.937H2.979V29.49A1.49,1.49,0,0,0,0,29.49v8.937a1.488,1.488,0,0,0,1.49,1.49h8.937a1.49,1.49,0,0,0,0-2.979" transform="translate(0 13.707)" fill="#858c80"/>
      <path id="Path_153" data-name="Path 153" d="M42.427,0H33.49a1.49,1.49,0,0,0,0,2.979h7.448v7.448a1.49,1.49,0,1,0,2.979,0V1.49A1.488,1.488,0,0,0,42.427,0" transform="translate(15.665 0)" fill="#858c80"/>
      <path id="Path_154" data-name="Path 154" d="M42.427,28a1.488,1.488,0,0,0-1.49,1.49v7.448H33.49a1.49,1.49,0,0,0,0,2.979h8.937a1.488,1.488,0,0,0,1.49-1.49V29.49A1.488,1.488,0,0,0,42.427,28" transform="translate(15.665 13.707)" fill="#858c80"/>
      <path id="Path_155" data-name="Path 155" d="M55.623,22.9C55.623,20.332,44.851,8,28.812,8S2,20.332,2,22.9s10.771,14.9,26.812,14.9S55.623,25.459,55.623,22.9m-14.9,0A11.916,11.916,0,1,1,28.812,10.979,11.929,11.929,0,0,1,40.728,22.9m-35.673,0c.836-1.621,5.307-6.688,12.518-9.667a14.606,14.606,0,0,0,0,19.334C10.362,29.583,5.891,24.516,5.055,22.9m34.994,9.667a14.6,14.6,0,0,0,0-19.334c7.211,2.979,11.682,8.046,12.518,9.667-.836,1.621-5.307,6.688-12.518,9.667" transform="translate(0.979 3.916)" fill="#858c80"/>
      <path id="Path_156" data-name="Path 156" d="M22.937,29.874A8.937,8.937,0,1,0,14,20.937a8.946,8.946,0,0,0,8.937,8.937m0-14.9a5.958,5.958,0,1,1-5.958,5.958,5.965,5.965,0,0,1,5.958-5.958" transform="translate(6.853 5.874)" fill="#858c80"/>
    </g>
  </g>
</svg>
