<svg xmlns="http://www.w3.org/2000/svg" xmlns:xlink="http://www.w3.org/1999/xlink" width="38.828" height="58.332" viewBox="0 0 38.828 58.332">
  <defs>
    <clipPath id="clip-path">
      <rect id="Rectangle_177" data-name="Rectangle 177" width="38.828" height="58.332" fill="none" stroke="#858c80" stroke-width="3"/>
    </clipPath>
  </defs>
  <g id="Group_169" data-name="Group 169" transform="translate(0 0)">
    <g id="Group_168" data-name="Group 168" transform="translate(0 0)" clip-path="url(#clip-path)">
      <rect id="Rectangle_175" data-name="Rectangle 175" width="29.005" height="36.511" transform="translate(4.911 20.844)" fill="none" stroke="#858c80" stroke-linecap="round" stroke-linejoin="round" stroke-width="3"/>
      <path id="Path_157" data-name="Path 157" d="M8.926,21.328v7.726a1.945,1.945,0,1,0,3.89,0v-1.4a2.373,2.373,0,0,1,4.747,0v5.834a3.06,3.06,0,1,0,6.12,0V30.855A1.918,1.918,0,0,1,25.6,28.937h.8a1.918,1.918,0,0,1,1.917,1.917,1.917,1.917,0,0,0,1.917,1.917h1.13a2.993,2.993,0,0,0,2.757-1.829" transform="translate(-0.203 -0.484)" fill="none" stroke="#858c80" stroke-linecap="round" stroke-linejoin="round" stroke-width="3"/>
      <path id="Path_158" data-name="Path 158" d="M34.5,28.2h3.936v9.7l-9.912,9.709H25.747" transform="translate(-0.585 -0.64)" fill="none" stroke="#858c80" stroke-linecap="round" stroke-linejoin="round" stroke-width="3"/>
      <rect id="Rectangle_176" data-name="Rectangle 176" width="11.537" height="5.097" transform="translate(13.625 44.425)" fill="none" stroke="#858c80" stroke-linecap="round" stroke-linejoin="round" stroke-width="3"/>
      <line id="Line_59" data-name="Line 59" x1="3.934" transform="translate(0.978 20.844)" fill="none" stroke="#858c80" stroke-linecap="round" stroke-linejoin="round" stroke-width="3"/>
      <line id="Line_60" data-name="Line 60" x2="3.935" transform="translate(33.916 20.844)" fill="none" stroke="#858c80" stroke-linecap="round" stroke-linejoin="round" stroke-width="3"/>
      <path id="Path_159" data-name="Path 159" d="M32.609,1.753,25.932,9.728A5.522,5.522,0,0,0,19.3,11.191l-.137.166,9.747,8.071.13-.156a5.522,5.522,0,0,0,.193-6.8l-.02-.027,6.621-8.009a2.1,2.1,0,0,0-3.229-2.687Z" transform="translate(-0.435 -0.022)" fill="none" stroke="#858c80" stroke-linecap="round" stroke-linejoin="round" stroke-width="3"/>
      <line id="Line_61" data-name="Line 61" x1="1.189" y2="1.439" transform="translate(27.288 19.406)" fill="none" stroke="#858c80" stroke-linecap="round" stroke-linejoin="round" stroke-width="3"/>
      <line id="Line_62" data-name="Line 62" y1="9.564" x2="7.926" transform="translate(10.804 11.334)" fill="none" stroke="#858c80" stroke-linecap="round" stroke-linejoin="round" stroke-width="3"/>
      <path id="Path_160" data-name="Path 160" d="M4.936,28.2H1v9.7l9.912,9.709h2.736" transform="translate(-0.023 -0.64)" fill="none" stroke="#858c80" stroke-linecap="round" stroke-linejoin="round" stroke-width="3"/>
    </g>
  </g>
</svg>
