<svg id="Group_145" data-name="Group 145" xmlns="http://www.w3.org/2000/svg" xmlns:xlink="http://www.w3.org/1999/xlink" width="75" height="63" viewBox="0 0 75 63">
  <defs>
    <clipPath id="clip-path">
      <rect id="Rectangle_164" data-name="Rectangle 164" width="75" height="63" fill="none" stroke="#353434" stroke-width="3"/>
    </clipPath>
  </defs>
  <g id="Group_144" data-name="Group 144" clip-path="url(#clip-path)">
    <path id="Path_119" data-name="Path 119" d="M1,1H73.188M1,1V54.356M1,1V16.693H73.188V1m0,0V54.356m0,0H65.342v6.277H55.926V54.356H18.262v6.277H8.847V54.356H1m72.188,0H1M30.817,8.847H43.371M8.847,30.817H21.4m9.416,0H43.371m9.416,0H65.342M8.847,22.97H21.4V48.079H8.847Zm21.97,0H43.371V48.079H30.817Zm21.97,0H65.342V48.079H52.787Z" transform="translate(0.569 0.569)" fill="none" stroke="#353434" stroke-linejoin="round" stroke-width="3"/>
  </g>
</svg>
