<svg xmlns="http://www.w3.org/2000/svg" xmlns:xlink="http://www.w3.org/1999/xlink" width="56.627" height="62.885" viewBox="0 0 56.627 62.885">
  <defs>
    <clipPath id="clip-path">
      <rect id="Rectangle_173" data-name="Rectangle 173" width="56.627" height="62.884" fill="#858c80"/>
    </clipPath>
  </defs>
  <g id="Group_165" data-name="Group 165" transform="translate(0 0)">
    <g id="Group_164" data-name="Group 164" transform="translate(0 0)" clip-path="url(#clip-path)">
      <path id="Path_148" data-name="Path 148" d="M55.054,9.4C45.906,9.4,33.861,6.315,29.574.595a1.632,1.632,0,0,0-2.52,0C22.766,6.315,10.721,9.4,1.573,9.4A1.572,1.572,0,0,0,0,10.976V31.425c0,17.3,15.02,27.724,27.881,31.4a1.556,1.556,0,0,0,.865,0c12.861-3.674,27.881-14.1,27.881-31.4V10.976A1.572,1.572,0,0,0,55.054,9.4M53.481,31.425c0,15.355-13.457,24.768-25.168,28.249C16.6,56.193,3.146,46.78,3.146,31.425v-18.9c9.09-.307,19.843-3.237,25.168-8.592,5.325,5.354,16.077,8.285,25.168,8.592Z" transform="translate(0 0.001)" fill="#858c80"/>
      <path id="Path_149" data-name="Path 149" d="M16.685,20.585a1.573,1.573,0,0,0-2.224,2.224l3.146,3.146a1.572,1.572,0,0,0,2.224,0l6.292-6.292A1.573,1.573,0,1,0,23.9,17.439l-5.18,5.18Z" transform="translate(8.022 9.729)" fill="#858c80"/>
      <path id="Path_150" data-name="Path 150" d="M8,25.708A15.73,15.73,0,1,0,23.73,9.978,15.748,15.748,0,0,0,8,25.708m28.314,0A12.584,12.584,0,1,1,23.73,13.124,12.6,12.6,0,0,1,36.314,25.708" transform="translate(4.584 5.718)" fill="#858c80"/>
    </g>
  </g>
</svg>
