<svg xmlns="http://www.w3.org/2000/svg" width="51.727" height="51.717" viewBox="0 0 51.727 51.717">
  <path id="Icon_ionic-ios-person" data-name="Icon ionic-ios-person" d="M53.191,51.986c-.913-4.034-6.128-6-7.929-6.635-1.979-.7-4.8-.863-6.61-1.269a6.716,6.716,0,0,1-3.057-1.408c-.507-.609-.2-6.255-.2-6.255a18.818,18.818,0,0,0,1.446-2.753A35.511,35.511,0,0,0,37.9,28.858s1.04,0,1.408-1.827c.393-1.992,1.015-2.766.939-4.25-.076-1.459-.875-1.421-.875-1.421a22.244,22.244,0,0,0,.863-6.508C40.352,9.638,36.267,4.5,28.871,4.5c-7.5,0-11.494,5.138-11.38,10.352a23.2,23.2,0,0,0,.85,6.508s-.8-.038-.875,1.421c-.076,1.484.546,2.258.939,4.25.355,1.827,1.408,1.827,1.408,1.827a35.51,35.51,0,0,0,1.066,4.808,18.817,18.817,0,0,0,1.446,2.753s.3,5.646-.2,6.255a6.716,6.716,0,0,1-3.057,1.408c-1.814.406-4.631.571-6.61,1.269-1.8.634-7.016,2.6-7.929,6.635a1.014,1.014,0,0,0,1,1.231H52.2A1.012,1.012,0,0,0,53.191,51.986Z" transform="translate(-2.995 -3)" fill="none" stroke="#858c80" stroke-width="3"/>
</svg>
