<svg id="Group_39" data-name="Group 39" xmlns="http://www.w3.org/2000/svg" xmlns:xlink="http://www.w3.org/1999/xlink" width="57.112" height="57.112" viewBox="0 0 57.112 57.112">
  <defs>
    <clipPath id="clip-path">
      <rect id="Rectangle_65" data-name="Rectangle 65" width="57.112" height="57.112" fill="#858c80"/>
    </clipPath>
  </defs>
  <g id="Group_38" data-name="Group 38" transform="translate(0 0)" clip-path="url(#clip-path)">
    <path id="Path_80" data-name="Path 80" d="M15.455,21.573a8.871,8.871,0,1,1,7.733-4.492,8.9,8.9,0,0,1-7.733,4.492m0-15.472a6.559,6.559,0,1,0,4.139,1.451A6.591,6.591,0,0,0,15.455,6.1" transform="translate(13.616 7.873)" fill="#858c80"/>
    <path id="Path_81" data-name="Path 81" d="M26.52,27.109H7.07a1.151,1.151,0,0,1-1.153-1.153V19.825a10.878,10.878,0,0,1,21.756,0v6.131a1.153,1.153,0,0,1-1.153,1.153M8.223,24.8H25.367V19.825a8.572,8.572,0,0,0-17.144,0Z" transform="translate(12.276 18.562)" fill="#858c80"/>
    <path id="Path_82" data-name="Path 82" d="M16.944,19.045a8.052,8.052,0,0,1-3.822-1,1.158,1.158,0,0,1-.452-1.577,6.67,6.67,0,0,0,.861-3.271,6.582,6.582,0,0,0-2.444-5.132,1.151,1.151,0,0,1-.178-1.6,7.6,7.6,0,0,1,6.036-2.918,7.75,7.75,0,1,1,0,15.5m-1.719-2.589a5.51,5.51,0,0,0,7.164-5.162,5.451,5.451,0,0,0-5.445-5.442,5.359,5.359,0,0,0-3.5,1.273,8.936,8.936,0,0,1,1.777,9.332" transform="translate(22.12 7.356)" fill="#858c80"/>
    <path id="Path_83" data-name="Path 83" d="M26.4,23.771H17.838a1.153,1.153,0,0,1,0-2.306h7.41V17.387a7.142,7.142,0,0,0-13.043-4.025,1.153,1.153,0,1,1-1.9-1.3,9.448,9.448,0,0,1,17.252,5.325v5.23A1.153,1.153,0,0,1,26.4,23.771" transform="translate(20.955 16.47)" fill="#858c80"/>
    <path id="Path_84" data-name="Path 84" d="M11.275,19.045a7.75,7.75,0,1,1,0-15.5,7.61,7.61,0,0,1,6.036,2.918,1.152,1.152,0,0,1-.181,1.6,6.626,6.626,0,0,0-1.583,8.406,1.154,1.154,0,0,1-.452,1.574,8.014,8.014,0,0,1-3.819,1m0-13.193A5.452,5.452,0,0,0,5.83,11.3a5.513,5.513,0,0,0,7.164,5.159,8.917,8.917,0,0,1,1.774-9.329,5.332,5.332,0,0,0-3.493-1.276" transform="translate(7.311 7.356)" fill="#858c80"/>
    <path id="Path_85" data-name="Path 85" d="M13.178,23.771H4.126a1.153,1.153,0,0,1-1.153-1.153v-5.23a9.449,9.449,0,0,1,17.252-5.328,1.153,1.153,0,1,1-1.9,1.3A7.142,7.142,0,0,0,5.279,17.387v4.077h7.9a1.153,1.153,0,1,1,0,2.306" transform="translate(6.168 16.47)" fill="#858c80"/>
    <path id="Path_86" data-name="Path 86" d="M28.558,57.112A28.556,28.556,0,1,1,57.115,28.558,28.589,28.589,0,0,1,28.558,57.112m0-54.806A26.25,26.25,0,1,0,54.809,28.558,26.281,26.281,0,0,0,28.558,2.306" transform="translate(0 -0.001)" fill="#858c80"/>
  </g>
</svg>
