<svg xmlns="http://www.w3.org/2000/svg" xmlns:xlink="http://www.w3.org/1999/xlink" width="71.875" height="85" viewBox="0 0 71.875 85">
  <defs>
    <clipPath id="clip-path">
      <rect id="Rectangle_168" data-name="Rectangle 168" width="71.875" height="85" fill="none" stroke="#353434" stroke-width="2"/>
    </clipPath>
  </defs>
  <g id="Group_153" data-name="Group 153" clip-path="url(#clip-path)">
    <path id="Path_136" data-name="Path 136" d="M1,67.131V49.94A17.238,17.238,0,0,1,18.238,32.7l17.2,34.429L52.635,32.7A17.238,17.238,0,0,1,69.874,49.94v17.19" transform="translate(0.501 16.369)" fill="none" stroke="#353434" stroke-linecap="round" stroke-linejoin="round" stroke-width="2"/>
    <path id="Path_137" data-name="Path 137" d="M15.534,15.727c0,7.066,5.728,19.073,12.794,19.073S41.121,22.793,41.121,15.727" transform="translate(7.776 7.872)" fill="none" stroke="#353434" stroke-linecap="round" stroke-linejoin="round" stroke-width="2"/>
    <path id="Path_138" data-name="Path 138" d="M46.885,32.7H38.5l-5.307,4.125a5.368,5.368,0,0,1-6.991-.053L21.08,32.7H12.488" transform="translate(6.251 16.369)" fill="none" stroke="#353434" stroke-linecap="round" stroke-linejoin="round" stroke-width="2"/>
    <line id="Line_43" data-name="Line 43" x2="6.125" transform="translate(44.991 76.55)" fill="none" stroke="#353434" stroke-linecap="round" stroke-linejoin="round" stroke-width="2"/>
    <line id="Line_44" data-name="Line 44" y2="29.036" transform="translate(35.938 54.464)" fill="none" stroke="#353434" stroke-linecap="round" stroke-linejoin="round" stroke-width="2"/>
    <path id="Path_139" data-name="Path 139" d="M12.361,21.266A17.305,17.305,0,0,1,24.751,4.692" transform="translate(6.187 2.348)" fill="none" stroke="#353434" stroke-linecap="round" stroke-linejoin="round" stroke-width="2"/>
    <path id="Path_140" data-name="Path 140" d="M27.163,4.662A17.315,17.315,0,0,1,39.7,21.281" transform="translate(13.596 2.333)" fill="none" stroke="#353434" stroke-linecap="round" stroke-linejoin="round" stroke-width="2"/>
    <path id="Path_141" data-name="Path 141" d="M9.6,20.556h0a4.829,4.829,0,0,1,4.839-4.818H47.815a4.829,4.829,0,0,1,4.839,4.818" transform="translate(4.807 7.877)" fill="none" stroke="#353434" stroke-linecap="round" stroke-linejoin="round" stroke-width="2"/>
    <path id="Path_142" data-name="Path 142" d="M19.455,14.467,21.2,6.54,22.419,1H29.84l1.181,5.5,1.715,7.972" transform="translate(9.738 0.5)" fill="none" stroke="#353434" stroke-linecap="round" stroke-linejoin="round" stroke-width="2"/>
    <line id="Line_45" data-name="Line 45" y2="16.032" transform="translate(15.81 67.468)" fill="none" stroke="#353434" stroke-linecap="round" stroke-linejoin="round" stroke-width="2"/>
    <line id="Line_46" data-name="Line 46" y2="16.032" transform="translate(56.153 67.468)" fill="none" stroke="#353434" stroke-linecap="round" stroke-linejoin="round" stroke-width="2"/>
  </g>
</svg>
