<svg xmlns="http://www.w3.org/2000/svg" xmlns:xlink="http://www.w3.org/1999/xlink" width="76.639" height="55.134" viewBox="0 0 76.639 55.134">
  <defs>
    <clipPath id="clip-path">
      <rect id="Rectangle_185" data-name="Rectangle 185" width="76.639" height="55.134" fill="none" stroke="#858c80" stroke-width="2"/>
    </clipPath>
  </defs>
  <g id="Group_181" data-name="Group 181" transform="translate(0 0)">
    <g id="Group_180" data-name="Group 180" transform="translate(0 0)" clip-path="url(#clip-path)">
      <rect id="Rectangle_183" data-name="Rectangle 183" width="25.591" height="10.764" transform="translate(1.346 26.771) rotate(-66.34)" fill="none" stroke="#858c80" stroke-linecap="round" stroke-linejoin="round" stroke-width="2"/>
      <rect id="Rectangle_184" data-name="Rectangle 184" width="10.764" height="25.591" transform="translate(55.163 5.666) rotate(-23.66)" fill="none" stroke="#858c80" stroke-linecap="round" stroke-linejoin="round" stroke-width="2"/>
      <path id="Path_184" data-name="Path 184" d="M12.173,11.61a3.244,3.244,0,0,1-.61,2.3l-.969,1.256-.287.359-.718.933a2.624,2.624,0,0,1-3.947.359l-.789-.753a3.384,3.384,0,0,1-.323-4.413l.5-.646.646-.9.789-1.04a2.688,2.688,0,0,1,2.763-1,4.26,4.26,0,0,1,1.184.646l.789.753A3.316,3.316,0,0,1,12.173,11.61Z" transform="translate(9.996 20.653)" fill="none" stroke="#858c80" stroke-linecap="round" stroke-linejoin="round" stroke-width="2"/>
      <path id="Path_185" data-name="Path 185" d="M53.385,30.344a3.67,3.67,0,0,1-2.727,1.184,3.579,3.579,0,0,1-2.4-.9,3.608,3.608,0,0,1-2.4,6.315,3.579,3.579,0,0,1-2.4-.9,3.623,3.623,0,0,1,.287,5.095,3.663,3.663,0,0,1-5.131.323A6.316,6.316,0,0,1,37.275,45.2a3.67,3.67,0,0,1-2.727,1.184,3.579,3.579,0,0,1-2.4-.9l-3.121-2.8.395-.5a3.066,3.066,0,0,0,.682-2.045,3.361,3.361,0,0,0-.969-2.4l-.825-.753a2.465,2.465,0,0,0-2.511-.61,2.245,2.245,0,0,0-1.363.9l.718-.933c.072-.144.144-.215.215-.359a3.8,3.8,0,0,0-.574-4.413l-.466-.431a2.79,2.79,0,0,0-4.054.144c-.072.072-.144.179-.215.251a.781.781,0,0,0,.179-.287,3.638,3.638,0,0,0-.538-4.485l-.466-.431a2.764,2.764,0,0,0-3.982.108c-.072.072-.215.144-.287.287L13.094,29.2c-.359-.251-.718-.538-1.04-.789l.969-1.256a3.244,3.244,0,0,0,.61-2.3,3.316,3.316,0,0,0-.969-2.153l-.789-.753A4.26,4.26,0,0,0,10.69,21.3a2.688,2.688,0,0,0-2.763,1l-.789,1.04-.646.9A19.264,19.264,0,0,0,3.3,22.272L12.3,2.862s2.4.538,5.956,1.65a4.522,4.522,0,0,0-.287,1.543,4.165,4.165,0,0,0,4.162,4.162H33.257a46.75,46.75,0,0,1,9.759,6.027c.395.323.753.682,1.112,1l6.566,5.812.323.323,2.081,1.83A3.665,3.665,0,0,1,53.385,30.344Z" transform="translate(8.537 7.408)" fill="none" stroke="#858c80" stroke-linecap="round" stroke-linejoin="round" stroke-width="2"/>
      <path id="Path_186" data-name="Path 186" d="M45.241,19.945l-4.808,4.108-.323-.323c-2.117-2.045-13.562-12.844-17.437-12.844H11.552A4.165,4.165,0,0,1,7.39,6.724a4.522,4.522,0,0,1,.287-1.543A4.214,4.214,0,0,1,11.552,2.6H22.01a3.718,3.718,0,0,1,1.292.233l6.584,2.422,7.786-2.264Z" transform="translate(19.124 6.725)" fill="none" stroke="#858c80" stroke-linecap="round" stroke-linejoin="round" stroke-width="2"/>
      <line id="Line_69" data-name="Line 69" x1="5.145" y1="4.338" transform="translate(51.651 33.688)" fill="none" stroke="#858c80" stroke-linecap="round" stroke-linejoin="round" stroke-width="2"/>
      <line id="Line_70" data-name="Line 70" x1="5.145" y1="4.338" transform="translate(46.506 39.01)" fill="none" stroke="#858c80" stroke-linecap="round" stroke-linejoin="round" stroke-width="2"/>
      <line id="Line_71" data-name="Line 71" x1="5.145" y1="4.338" transform="translate(42.157 44.331)" fill="none" stroke="#858c80" stroke-linecap="round" stroke-linejoin="round" stroke-width="2"/>
      <path id="Path_187" data-name="Path 187" d="M16.789,16.059a3.066,3.066,0,0,1-.682,2.045l-.395.5-.933,1.256-.61.789a2.593,2.593,0,0,1-3.947.323l-.789-.718a3.427,3.427,0,0,1-.61-3.982l.287-.431.431-.61h.036l.933-1.256.61-.789a2.245,2.245,0,0,1,1.363-.9,2.465,2.465,0,0,1,2.511.61l.825.753A3.361,3.361,0,0,1,16.789,16.059Z" transform="translate(21.848 31.489)" fill="none" stroke="#858c80" stroke-linecap="round" stroke-linejoin="round" stroke-width="2"/>
      <path id="Path_188" data-name="Path 188" d="M17.008,16.166c-.072.144-.144.215-.215.359l-.718.933-.61.789L14.533,19.5H14.5l-.431.61-.287.431-1.471,1.83a2.766,2.766,0,0,1-4.234.395l-.5-.431a3.7,3.7,0,0,1-.323-4.772l2.153-2.8.753-1L11.7,11.718c.072-.072.144-.179.215-.251a2.79,2.79,0,0,1,4.054-.144l.466.431A3.8,3.8,0,0,1,17.008,16.166Z" transform="translate(16.893 27.219)" fill="none" stroke="#858c80" stroke-linecap="round" stroke-linejoin="round" stroke-width="2"/>
      <path id="Path_189" data-name="Path 189" d="M15.531,14.891a.781.781,0,0,1-.179.287l-1.543,2.045-.753,1-2.153,2.8a2.85,2.85,0,0,1-4.269.395l-.466-.431a3.746,3.746,0,0,1-.359-4.772L8,13.348l.395-.5,1.866-2.476c.072-.144.215-.215.287-.287a2.764,2.764,0,0,1,3.982-.108l.466.431A3.638,3.638,0,0,1,15.531,14.891Z" transform="translate(13.239 23.759)" fill="none" stroke="#858c80" stroke-linecap="round" stroke-linejoin="round" stroke-width="2"/>
    </g>
  </g>
</svg>
