<svg xmlns="http://www.w3.org/2000/svg" xmlns:xlink="http://www.w3.org/1999/xlink" width="50" height="37.573" viewBox="0 0 50 37.573">
  <defs>
    <clipPath id="clip-path">
      <rect id="Rectangle_53" data-name="Rectangle 53" width="50" height="37.573" fill="#353434"/>
    </clipPath>
  </defs>
  <g id="Group_31" data-name="Group 31" transform="translate(0 0)">
    <g id="Group_30" data-name="Group 30" transform="translate(0 0)" clip-path="url(#clip-path)">
      <path id="Path_67" data-name="Path 67" d="M1,31.962A1,1,0,0,1,.026,30.73L2,22.33a9.131,9.131,0,0,1-.436-1.069A14.045,14.045,0,0,1,.59,16.021V14.9A14.916,14.916,0,0,1,15.488,0h6.892A15.035,15.035,0,0,1,34.355,6.013a14.752,14.752,0,0,1,2.95,8.886v1.122a14.93,14.93,0,0,1-14.925,14.9H15.488a14.932,14.932,0,0,1-4.383-.66,13.684,13.684,0,0,1-1.879-.716L1.29,31.919A.981.981,0,0,1,1,31.962M15.488,2A12.911,12.911,0,0,0,2.594,14.9v1.122a12.181,12.181,0,0,0,.861,4.57,8.352,8.352,0,0,0,.43,1.032,1.614,1.614,0,0,1,.152.831L2.375,29.5l6.657-1.988a.989.989,0,0,1,.73.064,11.88,11.88,0,0,0,1.921.764,12.974,12.974,0,0,0,3.805.575h6.892A12.923,12.923,0,0,0,35.3,16.021V14.9a12.749,12.749,0,0,0-2.552-7.686A13.019,13.019,0,0,0,22.381,2Z" transform="translate(0.001 0.001)" fill="#353434"/>
      <path id="Path_68" data-name="Path 68" d="M10.612,9.8a2.346,2.346,0,1,1,2.346-2.346A2.349,2.349,0,0,1,10.612,9.8m0-2.688a.344.344,0,0,0-.342.342c0,.377.684.377.684,0a.344.344,0,0,0-.342-.342" transform="translate(13.824 8.535)" fill="#353434"/>
      <path id="Path_69" data-name="Path 69" d="M8.451,9.8A2.346,2.346,0,1,1,10.8,7.449,2.352,2.352,0,0,1,8.451,9.8m0-2.688a.347.347,0,0,0-.345.342c0,.377.687.377.687,0a.346.346,0,0,0-.342-.342" transform="translate(10.205 8.535)" fill="#353434"/>
      <path id="Path_70" data-name="Path 70" d="M6.284,9.8A2.346,2.346,0,1,1,8.631,7.449,2.349,2.349,0,0,1,6.284,9.8m0-2.688a.344.344,0,0,0-.342.342c0,.377.684.377.684,0a.344.344,0,0,0-.342-.342" transform="translate(6.586 8.535)" fill="#353434"/>
      <path id="Path_71" data-name="Path 71" d="M39.315,34.062a1.082,1.082,0,0,1-.291-.043l-7.913-2.376a13,13,0,0,1-1.916.722,14.572,14.572,0,0,1-4.364.655H17.936A14.934,14.934,0,0,1,5.986,27a1,1,0,0,1,.807-1.6H12.7A12.923,12.923,0,0,0,25.62,12.509V11.386A12.749,12.749,0,0,0,23.067,3.7a1,1,0,0,1,.8-1.6h.962A14.916,14.916,0,0,1,39.73,17v1.122a14.7,14.7,0,0,1-.975,5.3c-.123.334-.27.676-.42,1.007l1.956,8.4a1.006,1.006,0,0,1-.975,1.232m-8.284-4.49a1,1,0,0,1,.281.04l6.63,1.986L36.306,24.54a1.008,1.008,0,0,1,.069-.644c.176-.377.355-.778.5-1.181a12.848,12.848,0,0,0,.847-4.594V17A12.915,12.915,0,0,0,25.737,4.134a14.766,14.766,0,0,1,1.887,7.253v1.122A14.93,14.93,0,0,1,12.7,27.407H9a12.925,12.925,0,0,0,8.934,3.608h6.895a12.709,12.709,0,0,0,3.789-.569,12.372,12.372,0,0,0,1.978-.775.978.978,0,0,1,.433-.1" transform="translate(9.682 3.513)" fill="#353434"/>
      <path id="Path_72" data-name="Path 72" d="M6.284,9.8A2.346,2.346,0,1,1,8.631,7.449,2.349,2.349,0,0,1,6.284,9.8m0-2.688a.344.344,0,0,0-.342.342c0,.377.684.377.684,0a.344.344,0,0,0-.342-.342" transform="translate(6.586 8.535)" fill="#353434"/>
      <path id="Path_73" data-name="Path 73" d="M8.451,9.8A2.346,2.346,0,1,1,10.8,7.449,2.352,2.352,0,0,1,8.451,9.8m0-2.688a.347.347,0,0,0-.345.342c0,.377.687.377.687,0a.346.346,0,0,0-.342-.342" transform="translate(10.205 8.535)" fill="#353434"/>
      <path id="Path_74" data-name="Path 74" d="M10.612,9.8a2.346,2.346,0,1,1,2.346-2.346A2.349,2.349,0,0,1,10.612,9.8m0-2.688a.344.344,0,0,0-.342.342c0,.377.684.377.684,0a.344.344,0,0,0-.342-.342" transform="translate(13.824 8.535)" fill="#353434"/>
    </g>
  </g>
</svg>
