<svg id="Group_24" data-name="Group 24" xmlns="http://www.w3.org/2000/svg" xmlns:xlink="http://www.w3.org/1999/xlink" width="89" height="67" viewBox="0 0 89 67">
  <defs>
    <clipPath id="clip-path">
      <rect id="Rectangle_49" data-name="Rectangle 49" width="89" height="67" fill="#353434"/>
    </clipPath>
  </defs>
  <g id="Group_23" data-name="Group 23" clip-path="url(#clip-path)">
    <path id="Path_46" data-name="Path 46" d="M83.137,0a5.548,5.548,0,0,0-5.542,5.542H11.085A5.542,5.542,0,1,0,0,5.542v56.81a4.162,4.162,0,0,0,4.157,4.157H84.522a4.162,4.162,0,0,0,4.157-4.157V5.542A5.548,5.548,0,0,0,83.137,0M80.365,5.542a2.771,2.771,0,0,1,5.542,0V56.168a5.533,5.533,0,0,0-5.542,0Zm5.542,56.81a1.388,1.388,0,0,1-1.386,1.386H4.157a1.388,1.388,0,0,1-1.386-1.386V60.967a2.771,2.771,0,1,1,5.542,0,1.386,1.386,0,1,0,2.771,0V18.013a1.386,1.386,0,1,0-2.771,0V56.168a5.765,5.765,0,0,0-5.542,0V5.542a2.771,2.771,0,0,1,5.542,0V12.47a1.386,1.386,0,1,0,2.771,0V8.314H77.594V60.967a1.386,1.386,0,1,0,2.771,0,2.771,2.771,0,1,1,5.542,0Z" fill="#353434"/>
    <path id="Path_47" data-name="Path 47" d="M19.949,24.137a1.385,1.385,0,0,0,1.959-1.959l-2.771-2.771a1.384,1.384,0,0,0-1.959,0l-2.771,2.771a1.385,1.385,0,0,0,1.959,1.959l.406-.406V44.753l-.406-.406a1.385,1.385,0,0,0-1.959,1.959l2.771,2.771a1.385,1.385,0,0,0,1.959,0l2.771-2.771a1.385,1.385,0,1,0-1.959-1.959l-.406.406V23.731Z" transform="translate(5.398 7.326)" fill="#353434"/>
    <path id="Path_48" data-name="Path 48" d="M57.62,11.406a1.385,1.385,0,1,0-1.959,1.959l.406.406H26.731l.406-.406a1.385,1.385,0,0,0-1.959-1.959l-2.771,2.771a1.384,1.384,0,0,0,0,1.959l2.771,2.771a1.385,1.385,0,1,0,1.959-1.959l-.406-.406H56.067l-.406.406a1.385,1.385,0,1,0,1.959,1.959l2.771-2.771a1.384,1.384,0,0,0,0-1.959Z" transform="translate(8.483 4.242)" fill="#353434"/>
    <path id="Path_49" data-name="Path 49" d="M54.749,19.593A1.388,1.388,0,0,0,53.611,19H29.186a1.388,1.388,0,0,0-1.138.593l-5.8,8.314a1.385,1.385,0,0,0,1.136,2.178h1.386V45.327a4.162,4.162,0,0,0,4.157,4.157H53.869a4.162,4.162,0,0,0,4.157-4.157V30.085h1.386a1.385,1.385,0,0,0,1.136-2.178ZM29.908,21.771H52.889l3.866,5.542H26.042ZM40.013,46.712V42.555a1.386,1.386,0,1,1,2.771,0v4.157Zm15.242-1.386a1.388,1.388,0,0,1-1.386,1.386H45.555V42.555a4.157,4.157,0,0,0-8.314,0v4.157H28.928a1.388,1.388,0,0,1-1.386-1.386V30.085H55.255Z" transform="translate(8.483 7.327)" fill="#353434"/>
    <path id="Path_50" data-name="Path 50" d="M28.386,36.314h5.542a1.386,1.386,0,0,0,1.386-1.386V29.386A1.386,1.386,0,0,0,33.928,28H28.386A1.386,1.386,0,0,0,27,29.386v5.542a1.386,1.386,0,0,0,1.386,1.386m1.386-5.542h2.771v2.771H29.771Z" transform="translate(10.411 10.797)" fill="#353434"/>
    <path id="Path_51" data-name="Path 51" d="M40.386,36.314h5.542a1.386,1.386,0,0,0,1.386-1.386V29.386A1.386,1.386,0,0,0,45.928,28H40.386A1.386,1.386,0,0,0,39,29.386v5.542a1.386,1.386,0,0,0,1.386,1.386m1.386-5.542h2.771v2.771H41.771Z" transform="translate(15.039 10.797)" fill="#353434"/>
  </g>
</svg>
