<svg xmlns="http://www.w3.org/2000/svg" width="218" height="116.618" viewBox="0 0 218 116.618">
  <g id="Group_14" data-name="Group 14" transform="translate(463.986 -2340.931)">
    <g id="Group_11" data-name="Group 11" transform="translate(-463.986 2406.55)">
      <path id="Path_22" data-name="Path 22" d="M-447.619,2482.514l-6.961-10.489-3.048,3.254v7.234h-6.358v-24.576h6.358V2468.5l9.444-10.558h7.262l-9.332,9.969,9.858,14.607Z" transform="translate(463.986 -2457.349)" fill="#302c28"/>
      <path id="Path_23" data-name="Path 23" d="M-393.528,2482.514h-6.359v-24.576h6.359Z" transform="translate(436.157 -2457.349)" fill="#302c28"/>
      <path id="Path_24" data-name="Path 24" d="M-344.78,2457.938v4.638h-7.788v19.938h-6.321v-19.938h-7.75v-4.638Z" transform="translate(421.723 -2457.349)" fill="#302c28"/>
      <path id="Path_25" data-name="Path 25" d="M-298.5,2482.651q-6.246,0-9.632-3.461t-3.386-9.381a12.706,12.706,0,0,1,3.517-9.381q3.518-3.53,9.576-3.53a13.148,13.148,0,0,1,8.165,2.371,9.248,9.248,0,0,1,3.65,6.456l-6.434,1.038a6.052,6.052,0,0,0-1.731-3.807,5.309,5.309,0,0,0-3.8-1.35,5.653,5.653,0,0,0-4.723,2.2,9.472,9.472,0,0,0-1.712,5.971,9.291,9.291,0,0,0,1.749,5.919,5.861,5.861,0,0,0,4.873,2.215,5.143,5.143,0,0,0,3.65-1.333,6.412,6.412,0,0,0,1.844-3.721l6.434,1.281a10.589,10.589,0,0,1-4.082,6.248A13.154,13.154,0,0,1-298.5,2482.651Z" transform="translate(397.79 -2456.898)" fill="#302c28"/>
      <path id="Path_26" data-name="Path 26" d="M-221.235,2457.938v24.576h-6.36V2472.3h-10.271v10.211h-6.358v-24.576h6.358v9.865h10.271v-9.865Z" transform="translate(368.575 -2457.349)" fill="#302c28"/>
      <path id="Path_27" data-name="Path 27" d="M-170.775,2478.188h12.191v4.326h-18.55v-24.576h18.286v4.326h-11.927v5.539h11.287v4.292h-11.287Z" transform="translate(339.448 -2457.349)" fill="#302c28"/>
      <path id="Path_28" data-name="Path 28" d="M-119.55,2482.514v-24.576h7.036l8.579,14.019a23.4,23.4,0,0,1,1.618,3.185h.075q0-.449-.019-1.489t-.019-1.661v-14.054h5.832v24.576h-6.773l-8.88-14.157a26.207,26.207,0,0,1-1.58-3.011h-.075q0,.485.019,1.558t.019,1.7v13.915Z" transform="translate(314.448 -2457.349)" fill="#302c28"/>
    </g>
    <g id="Group_12" data-name="Group 12" transform="translate(-424.663 2443.043)">
      <path id="Path_29" data-name="Path 29" d="M-383.607,2523.263h-4.651v12.556h-1.584v-12.556h-4.65v-1.287h10.885Z" transform="translate(394.492 -2521.645)" fill="#302c28"/>
      <path id="Path_30" data-name="Path 30" d="M-365.884,2528.643c0-4.5,2.559-7.252,6.5-7.252s6.5,2.748,6.5,7.252c0,4.465-2.559,7.253-6.5,7.253S-365.884,2533.049-365.884,2528.643Zm11.352,0c0-3.665-1.807-5.966-4.854-5.966-3.025,0-4.853,2.3-4.853,5.966,0,3.587,1.828,5.966,4.853,5.966C-356.339,2534.609-354.532,2532.309-354.532,2528.643Z" transform="translate(382.072 -2521.391)" fill="#302c28"/>
      <path id="Path_31" data-name="Path 31" d="M-330.347,2528.643c0-4.23,2.315-7.252,6.5-7.252,3.981,0,5.24,2.671,5.484,4.21l-1.564.2a3.666,3.666,0,0,0-3.98-3.12c-3.087,0-4.833,2.457-4.833,5.985,0,3.295,1.564,5.927,4.853,5.927a4.143,4.143,0,0,0,4.366-4.425v-.487h-4.468v-1.287h5.89v7.175h-1.158l-.224-2.515a4.694,4.694,0,0,1-4.651,2.847C-328.052,2535.9-330.347,2532.8-330.347,2528.643Z" transform="translate(366.643 -2521.391)" fill="#302c28"/>
      <path id="Path_32" data-name="Path 32" d="M-284.368,2534.531v1.287H-293.3v-13.842h8.793v1.287h-7.23v4.815h6.885v1.287h-6.885v5.166Z" transform="translate(350.56 -2521.645)" fill="#302c28"/>
      <path id="Path_33" data-name="Path 33" d="M-254.634,2523.263h-4.65v12.556h-1.584v-12.556h-4.65v-1.287h10.885Z" transform="translate(338.498 -2521.645)" fill="#302c28"/>
      <path id="Path_34" data-name="Path 34" d="M-222.212,2535.818H-223.8v-6.434h-7.818v6.434h-1.563v-13.842h1.563v6.122h7.818v-6.122h1.584Z" transform="translate(324.457 -2521.645)" fill="#302c28"/>
      <path id="Path_35" data-name="Path 35" d="M-188.384,2534.531v1.287h-8.935v-13.842h8.793v1.287h-7.23v4.815h6.885v1.287h-6.885v5.166Z" transform="translate(308.889 -2521.645)" fill="#302c28"/>
      <path id="Path_36" data-name="Path 36" d="M-161.538,2529.911h-3.311v5.907h-1.563v-13.842h5.158c3.716,0,4.691,1.989,4.691,3.958a3.714,3.714,0,0,1-3.31,3.783l3.757,6.1H-157.9Zm-3.311-1.287h3.453c2.335,0,3.168-1.189,3.168-2.69,0-1.521-.812-2.671-3.168-2.671h-3.453Z" transform="translate(295.47 -2521.645)" fill="#302c28"/>
    </g>
    <g id="Group_13" data-name="Group 13" transform="translate(-377.791 2340.931)">
      <path id="Path_37" data-name="Path 37" d="M-265.852,2356.961h1.815l-10.723,11.468,14.423,15.364,1.239,1.321H-271.34l-9.521-10.15-1.541,1.65v-1.944l1.535-1.642,10.1,10.766h8.613l-14.423-15.364Z" transform="translate(298.956 -2347.89)" fill="#c5aa97"/>
      <path id="Path_38" data-name="Path 38" d="M-281.07,2353.257h10.428l1.239-1.327h-12.243l-17.91,19.163v-17.836h6.284v8.892l1.327-1.42v-8.8h-8.938v22.528Z" transform="translate(306.979 -2345.706)" fill="#858c80"/>
      <path id="Path_39" data-name="Path 39" d="M-293.272,2380.2v13.067h-6.284v-6.344l-1.327,1.42v6.245h8.938v-15.808Z" transform="translate(306.979 -2357.362)" fill="#858c80"/>
      <path id="Path_40" data-name="Path 40" d="M-266.047,2340.936l-45.61-.005v43.447h45.61Zm-1.327,42.115H-310.33v-40.793h42.955Z" transform="translate(311.657 -2340.931)" fill="#858c80"/>
    </g>
  </g>
</svg>
