<svg xmlns="http://www.w3.org/2000/svg" width="347" height="61.577" viewBox="0 0 347 61.577">
  <g id="Group_5" data-name="Group 5" transform="translate(-627.27 -1253.117)">
    <g id="Group_3" data-name="Group 3" transform="translate(712.545 1253.292)">
      <g id="Group_1" data-name="Group 1" transform="translate(0)">
        <path id="Path_1" data-name="Path 1" d="M772.446,1283.921l-8.357-12.593-3.659,3.907v8.686H752.8v-29.506h7.634v12.675l11.338-12.675h8.719l-11.2,11.969,11.835,17.538Z" transform="translate(-752.796 -1253.709)" fill="#fff"/>
        <path id="Path_2" data-name="Path 2" d="M824.529,1283.921H816.9v-29.506h7.634Z" transform="translate(-773.35 -1253.709)" fill="#fff"/>
        <path id="Path_3" data-name="Path 3" d="M876.386,1254.415v5.569h-9.35v23.938h-7.589v-23.938h-9.306v-5.569Z" transform="translate(-784.01 -1253.709)" fill="#fff"/>
        <path id="Path_4" data-name="Path 4" d="M920.895,1284.295q-7.5,0-11.564-4.156t-4.066-11.263q0-7.022,4.224-11.262t11.5-4.238q6.053,0,9.8,2.846a11.1,11.1,0,0,1,4.382,7.751l-7.724,1.247a7.27,7.27,0,0,0-2.078-4.572,6.377,6.377,0,0,0-4.562-1.621,6.786,6.786,0,0,0-5.669,2.639,11.374,11.374,0,0,0-2.056,7.169,11.153,11.153,0,0,0,2.1,7.106,7.036,7.036,0,0,0,5.85,2.66,6.173,6.173,0,0,0,4.382-1.6,7.7,7.7,0,0,0,2.213-4.467l7.724,1.538a12.712,12.712,0,0,1-4.9,7.5A15.788,15.788,0,0,1,920.895,1284.295Z" transform="translate(-801.687 -1253.375)" fill="#fff"/>
        <path id="Path_5" data-name="Path 5" d="M1000.157,1254.415v29.506h-7.635v-12.26H980.191v12.26h-7.634v-29.506h7.634v11.844h12.331v-11.844Z" transform="translate(-823.264 -1253.709)" fill="#fff"/>
        <path id="Path_6" data-name="Path 6" d="M1047.282,1278.727h14.635v5.195h-22.27v-29.506H1061.6v5.194h-14.319v6.65h13.552v5.154h-13.552Z" transform="translate(-844.778 -1253.709)" fill="#fff"/>
        <path id="Path_7" data-name="Path 7" d="M1097.232,1283.921v-29.506h8.447l10.3,16.831a28.177,28.177,0,0,1,1.942,3.823h.09q0-.539-.022-1.787c-.015-.83-.022-1.5-.022-1.994v-16.873h7v29.506h-8.13l-10.662-17a31.361,31.361,0,0,1-1.9-3.615h-.09q0,.583.023,1.87t.022,2.037v16.706Z" transform="translate(-863.242 -1253.709)" fill="#fff"/>
      </g>
      <g id="Group_2" data-name="Group 2" transform="translate(0 43.813)">
        <path id="Path_8" data-name="Path 8" d="M765.864,1320H760.28v15.074h-1.9V1320H752.8v-1.545h13.068Z" transform="translate(-752.796 -1318.055)" fill="#fff"/>
        <path id="Path_9" data-name="Path 9" d="M781.4,1326.575c0-5.407,3.073-8.707,7.8-8.707s7.8,3.3,7.8,8.707c0,5.36-3.072,8.707-7.8,8.707S781.4,1331.865,781.4,1326.575Zm13.63,0c0-4.4-2.17-7.162-5.827-7.162-3.632,0-5.827,2.761-5.827,7.162,0,4.307,2.195,7.162,5.827,7.162C792.862,1333.737,795.033,1330.975,795.033,1326.575Z" transform="translate(-761.969 -1317.868)" fill="#fff"/>
        <path id="Path_10" data-name="Path 10" d="M816.94,1326.575c0-5.079,2.78-8.707,7.8-8.707,4.779,0,6.29,3.207,6.583,5.056l-1.878.234c-.268-1.521-1.365-3.745-4.778-3.745-3.706,0-5.8,2.949-5.8,7.185,0,3.956,1.878,7.115,5.827,7.115,4.486,0,5.242-3.675,5.242-5.313v-.585h-5.363v-1.545h7.071v8.614h-1.39l-.268-3.019a5.636,5.636,0,0,1-5.583,3.417C819.7,1335.282,816.94,1331.56,816.94,1326.575Z" transform="translate(-773.364 -1317.868)" fill="#fff"/>
        <path id="Path_11" data-name="Path 11" d="M864.711,1333.527v1.545H853.984v-16.619h10.557V1320h-8.68v5.781h8.266v1.545h-8.266v6.2Z" transform="translate(-785.243 -1318.055)" fill="#fff"/>
        <path id="Path_12" data-name="Path 12" d="M894.837,1320h-5.584v15.074h-1.9V1320h-5.583v-1.545h13.069Z" transform="translate(-794.152 -1318.055)" fill="#fff"/>
        <path id="Path_13" data-name="Path 13" d="M927.275,1335.072h-1.9v-7.724h-9.387v7.724h-1.877v-16.619h1.877v7.35h9.387v-7.35h1.9Z" transform="translate(-804.522 -1318.055)" fill="#fff"/>
        <path id="Path_14" data-name="Path 14" d="M960.7,1333.527v1.545H949.969v-16.619h10.557V1320h-8.681v5.781h8.266v1.545h-8.266v6.2Z" transform="translate(-816.021 -1318.055)" fill="#fff"/>
        <path id="Path_15" data-name="Path 15" d="M986.726,1327.98h-3.974v7.092h-1.877v-16.619h6.192c4.461,0,5.632,2.388,5.632,4.751a4.459,4.459,0,0,1-3.974,4.541l4.511,7.326H991.09Zm-3.974-1.545H986.9c2.8,0,3.8-1.427,3.8-3.23,0-1.825-.976-3.207-3.8-3.207h-4.145Z" transform="translate(-825.932 -1318.055)" fill="#fff"/>
      </g>
    </g>
    <g id="Group_4" data-name="Group 4" transform="translate(627.27 1253.117)">
      <path id="Path_16" data-name="Path 16" d="M685.261,1272.041h2.572l-15.2,16.254,20.442,21.775,1.756,1.872H677.483l-13.493-14.386-2.185,2.338v-2.756l2.175-2.327L678.3,1310.07h12.207l-20.441-21.775Z" transform="translate(-638.344 -1259.185)" fill="#fff"/>
      <path id="Path_17" data-name="Path 17" d="M668.069,1267.983h14.779l1.756-1.881H667.253l-25.383,27.159v-25.278h8.906v12.6l1.881-2.013V1266.1H639.988v31.929Z" transform="translate(-631.348 -1257.281)" fill="#fff"/>
      <path id="Path_18" data-name="Path 18" d="M650.775,1299.808v18.52h-8.906v-8.991l-1.881,2.013v8.85h12.667v-22.4Z" transform="translate(-631.348 -1267.444)" fill="#fff"/>
      <path id="Path_19" data-name="Path 19" d="M691.912,1253.125l-64.642-.008v61.577h64.642Zm-1.881,59.689h-60.88V1255h60.88Z" transform="translate(-627.27 -1253.117)" fill="#fff"/>
    </g>
  </g>
</svg>
