<svg id="Group_22" data-name="Group 22" xmlns="http://www.w3.org/2000/svg" xmlns:xlink="http://www.w3.org/1999/xlink" width="69" height="92" viewBox="0 0 69 92">
  <defs>
    <clipPath id="clip-path">
      <rect id="Rectangle_48" data-name="Rectangle 48" width="69" height="92" fill="#353434"/>
    </clipPath>
  </defs>
  <g id="Group_21" data-name="Group 21" clip-path="url(#clip-path)">
    <path id="Path_43" data-name="Path 43" d="M19.43,23A1.43,1.43,0,0,0,18,24.43v1.43a1.43,1.43,0,1,0,2.86,0V24.43A1.43,1.43,0,0,0,19.43,23" transform="translate(7.739 9.889)" fill="#353434"/>
    <path id="Path_44" data-name="Path 44" d="M29.43,27.29a1.43,1.43,0,0,0,1.43-1.43V24.43a1.43,1.43,0,0,0-2.86,0v1.43a1.43,1.43,0,0,0,1.43,1.43" transform="translate(12.039 9.889)" fill="#353434"/>
    <path id="Path_45" data-name="Path 45" d="M50.049,62.919H40.039V56.2a17.174,17.174,0,0,0,11.44-16.159v-2.86a5.7,5.7,0,0,0,4.176-9.6,4.25,4.25,0,0,0-1.368-7.311A18.492,18.492,0,0,0,39.454,3.247a5.684,5.684,0,0,0-10.27,0,18.492,18.492,0,0,0-14.832,17.02,4.25,4.25,0,0,0-1.368,7.311,5.7,5.7,0,0,0,4.176,9.6v2.86A17.174,17.174,0,0,0,28.6,56.2v6.721H18.59A18.611,18.611,0,0,0,0,81.508v8.58a1.43,1.43,0,0,0,1.43,1.43H67.209a1.43,1.43,0,0,0,1.43-1.43v-8.58a18.611,18.611,0,0,0-18.59-18.59m4.29,3.469V77.218H37.066l8.008-11.44h4.975a15.681,15.681,0,0,1,4.29.609M14.3,80.078h18.59v2.86H14.3Zm20.02-10.01a5.714,5.714,0,0,0,5.517-4.29h1.746L34.319,76.155,27.056,65.779H28.8a5.714,5.714,0,0,0,5.517,4.29m17.16-35.749V28.6a2.86,2.86,0,0,1,0,5.72m-.063-14.3H40.039V6.32a15.657,15.657,0,0,1,11.377,13.7M34.319,2.86a2.863,2.863,0,0,1,2.86,2.86v14.3h-5.72V5.72a2.863,2.863,0,0,1,2.86-2.86M28.6,6.32v13.7H17.223A15.657,15.657,0,0,1,28.6,6.32M14.3,31.459a2.863,2.863,0,0,1,2.86-2.86v5.72a2.863,2.863,0,0,1-2.86-2.86m5.72,8.58V28.6h18.59a1.43,1.43,0,0,0,0-2.86H15.73a1.43,1.43,0,0,1,0-2.86H52.909a1.43,1.43,0,1,1,0,2.86h-8.58a1.43,1.43,0,1,0,0,2.86h4.29v11.44a14.3,14.3,0,0,1-28.6,0m14.3,17.16a17.139,17.139,0,0,0,2.86-.259v7.409a2.86,2.86,0,1,1-5.72,0V56.94a17.139,17.139,0,0,0,2.86.259m-10.755,8.58,8.008,11.44H14.3V66.388a15.681,15.681,0,0,1,4.29-.609ZM2.86,81.508a15.737,15.737,0,0,1,8.58-13.994V88.658H2.86ZM14.3,85.8h18.59v2.86H14.3Zm21.45,2.86V85.8h4.29a1.43,1.43,0,0,0,0-2.86h-4.29v-2.86h18.59v2.86h-8.58a1.43,1.43,0,0,0,0,2.86h8.58v2.86Zm30.029,0H57.2V67.515a15.737,15.737,0,0,1,8.58,13.994Z" fill="#353434"/>
  </g>
</svg>
