<svg id="Group_125" data-name="Group 125" xmlns="http://www.w3.org/2000/svg" xmlns:xlink="http://www.w3.org/1999/xlink" width="88.25" height="70.6" viewBox="0 0 88.25 70.6">
  <defs>
    <clipPath id="clip-path">
      <rect id="Rectangle_148" data-name="Rectangle 148" width="88.25" height="70.6" fill="#353434"/>
    </clipPath>
  </defs>
  <g id="Group_124" data-name="Group 124" clip-path="url(#clip-path)">
    <path id="Path_116" data-name="Path 116" d="M0,0V47.434H3.309V61.775h5.58a9.925,9.925,0,0,0,19.727,0h26.6a9.925,9.925,0,0,0,19.727,0h11.1a2.222,2.222,0,0,0,2.207-2.207V55.157a2.081,2.081,0,0,0-1.1-1.747v-15.3L79.88,19.283a7.725,7.725,0,0,0-7.2-4.942H51.848V0ZM2.207,2.207H49.641V14.341a1.1,1.1,0,1,0,0,2.2V31.991a1.1,1.1,0,1,0,0,2.2V45.227a1.1,1.1,0,1,0,0,2.207V59.568H28.616a9.925,9.925,0,0,0-19.727,0H5.516V47.434a1.1,1.1,0,0,0,0-2.207H2.207ZM5.516,14.341a1.1,1.1,0,1,0,1.1,1.1,1.105,1.105,0,0,0-1.1-1.1m4.411,0a1.1,1.1,0,1,0,1.1,1.1,1.1,1.1,0,0,0-1.1-1.1m4.414,0a1.1,1.1,0,1,0,1.1,1.1,1.105,1.105,0,0,0-1.1-1.1m4.411,0a1.1,1.1,0,1,0,1.1,1.1,1.1,1.1,0,0,0-1.1-1.1m4.414,0a1.1,1.1,0,1,0,1.1,1.1,1.105,1.105,0,0,0-1.1-1.1m4.411,0a1.1,1.1,0,1,0,1.1,1.1,1.1,1.1,0,0,0-1.1-1.1m4.414,0a1.1,1.1,0,1,0,1.1,1.1,1.105,1.105,0,0,0-1.1-1.1m4.411,0a1.1,1.1,0,1,0,1.1,1.1,1.1,1.1,0,0,0-1.1-1.1m4.414,0a1.1,1.1,0,1,0,1.1,1.1,1.105,1.105,0,0,0-1.1-1.1m4.411,0a1.1,1.1,0,1,0,1.1,1.1,1.1,1.1,0,0,0-1.1-1.1m6.62,2.2H67.291V31.991A4.425,4.425,0,0,0,71.7,36.4h1.54a2.2,2.2,0,0,1,1.836.984l.241.36a4.408,4.408,0,0,0,3.671,1.965h5.951v2.207H82.734a4.428,4.428,0,0,0-4.414,4.414v1.1h.225a4.369,4.369,0,0,0,4.188,3.309h2.207V52.95a1.1,1.1,0,1,0,0,2.207h1.1v4.411h-11.1a9.925,9.925,0,0,0-19.727,0H51.848Zm17.648,0h3.186a5.5,5.5,0,0,1,5.14,3.53L84.549,37.5H78.99a2.189,2.189,0,0,1-1.836-.982l-.246-.362A4.4,4.4,0,0,0,73.242,34.2H71.7a2.188,2.188,0,0,1-2.207-2.2Zm-11.03,3.311a3.325,3.325,0,0,0-3.309,3.309v9.927A3.325,3.325,0,0,0,58.466,36.4h2.207a3.327,3.327,0,0,0,3.309-3.309V23.166a3.327,3.327,0,0,0-3.309-3.309Zm0,2.2h2.207a1.084,1.084,0,0,1,1.1,1.1v9.927a1.083,1.083,0,0,1-1.1,1.1H58.466a1.084,1.084,0,0,1-1.1-1.1V23.166a1.084,1.084,0,0,1,1.1-1.1m-52.95,9.93a1.1,1.1,0,1,0,1.1,1.1,1.105,1.105,0,0,0-1.1-1.1m4.411,0a1.1,1.1,0,1,0,1.1,1.1,1.1,1.1,0,0,0-1.1-1.1m4.414,0a1.1,1.1,0,1,0,1.1,1.1,1.105,1.105,0,0,0-1.1-1.1m4.411,0a1.1,1.1,0,1,0,1.1,1.1,1.1,1.1,0,0,0-1.1-1.1m4.414,0a1.1,1.1,0,1,0,1.1,1.1,1.105,1.105,0,0,0-1.1-1.1m4.411,0a1.1,1.1,0,1,0,1.1,1.1,1.1,1.1,0,0,0-1.1-1.1m4.414,0a1.1,1.1,0,1,0,1.1,1.1,1.105,1.105,0,0,0-1.1-1.1m4.411,0a1.1,1.1,0,1,0,1.1,1.1,1.1,1.1,0,0,0-1.1-1.1m4.414,0a1.1,1.1,0,1,0,1.1,1.1,1.105,1.105,0,0,0-1.1-1.1m4.411,0a1.1,1.1,0,1,0,1.1,1.1,1.1,1.1,0,0,0-1.1-1.1M82.734,44.125h2.207v4.411H82.734a2.206,2.206,0,1,1,0-4.411m-72.807,1.1a1.1,1.1,0,1,0,1.1,1.1,1.105,1.105,0,0,0-1.1-1.1m4.414,0a1.1,1.1,0,1,0,1.1,1.1,1.107,1.107,0,0,0-1.1-1.1m4.411,0a1.1,1.1,0,1,0,1.1,1.1,1.105,1.105,0,0,0-1.1-1.1m4.414,0a1.1,1.1,0,1,0,1.1,1.1,1.107,1.107,0,0,0-1.1-1.1m4.411,0a1.1,1.1,0,1,0,1.1,1.1,1.105,1.105,0,0,0-1.1-1.1m4.414,0a1.1,1.1,0,1,0,1.1,1.1,1.107,1.107,0,0,0-1.1-1.1m4.411,0a1.1,1.1,0,1,0,1.1,1.1,1.105,1.105,0,0,0-1.1-1.1m4.414,0a1.1,1.1,0,1,0,1.1,1.1,1.107,1.107,0,0,0-1.1-1.1m4.411,0a1.1,1.1,0,1,0,1.1,1.1,1.105,1.105,0,0,0-1.1-1.1M18.752,52.95a7.722,7.722,0,1,1-7.72,7.72,7.7,7.7,0,0,1,7.72-7.72m46.332,0a7.722,7.722,0,1,1-7.723,7.72,7.7,7.7,0,0,1,7.723-7.72m11.032,0a1.1,1.1,0,1,0,1.1,1.1,1.105,1.105,0,0,0-1.1-1.1m4.411,0a1.1,1.1,0,1,0,1.1,1.1,1.1,1.1,0,0,0-1.1-1.1M18.752,57.361a3.309,3.309,0,1,0,3.309,3.309,3.328,3.328,0,0,0-3.309-3.309m46.332,0a3.309,3.309,0,1,0,3.309,3.309,3.327,3.327,0,0,0-3.309-3.309M18.752,59.568a1.1,1.1,0,1,1-1.1,1.1,1.089,1.089,0,0,1,1.1-1.1m46.332,0a1.1,1.1,0,1,1-1.1,1.1,1.089,1.089,0,0,1,1.1-1.1" fill="#353434"/>
  </g>
</svg>
